<mxfile host="app.diagrams.net" modified="2023-09-25T00:04:22.567Z" agent="Mozilla/5.0 (Windows NT 10.0; Win64; x64) AppleWebKit/537.36 (KHTML, like Gecko) Chrome/116.0.0.0 Safari/537.36" etag="BzDukfgSb5z8KFyqT29Z" version="21.8.2" type="device" pages="2">
  <diagram name="Страница 1" id="il__jpQR86VVpvk1VmUp">
    <mxGraphModel dx="3267" dy="1353" grid="1" gridSize="10" guides="1" tooltips="1" connect="1" arrows="1" fold="1" page="1" pageScale="1" pageWidth="827" pageHeight="1169" math="0" shadow="0">
      <root>
        <mxCell id="0" />
        <mxCell id="1" parent="0" />
        <mxCell id="rYrMTj0-VR9Pnu8nQPqp-37" style="edgeStyle=orthogonalEdgeStyle;rounded=0;orthogonalLoop=1;jettySize=auto;html=1;entryX=0.5;entryY=0;entryDx=0;entryDy=0;" parent="1" source="6b2ZdlBM0GPliZROmy70-1" target="rYrMTj0-VR9Pnu8nQPqp-40" edge="1">
          <mxGeometry relative="1" as="geometry">
            <mxPoint x="950" y="320" as="targetPoint" />
          </mxGeometry>
        </mxCell>
        <mxCell id="6b2ZdlBM0GPliZROmy70-1" value="Ген.директор" style="rounded=0;whiteSpace=wrap;html=1;" parent="1" vertex="1">
          <mxGeometry x="385" y="190" width="120" height="60" as="geometry" />
        </mxCell>
        <mxCell id="6b2ZdlBM0GPliZROmy70-5" value="Руководитель отдела ресурсов" style="rounded=0;whiteSpace=wrap;html=1;" parent="1" vertex="1">
          <mxGeometry x="385" y="360" width="120" height="60" as="geometry" />
        </mxCell>
        <mxCell id="6b2ZdlBM0GPliZROmy70-8" value="Специалисты по управлению материальными ресурсами&amp;nbsp;" style="rounded=0;whiteSpace=wrap;html=1;" parent="1" vertex="1">
          <mxGeometry x="525" y="450" width="120" height="60" as="geometry" />
        </mxCell>
        <mxCell id="6b2ZdlBM0GPliZROmy70-9" value="Финансовый менеджер" style="rounded=0;whiteSpace=wrap;html=1;" parent="1" vertex="1">
          <mxGeometry x="255" y="440" width="120" height="60" as="geometry" />
        </mxCell>
        <mxCell id="6b2ZdlBM0GPliZROmy70-15" value="Программисты" style="rounded=0;whiteSpace=wrap;html=1;" parent="1" vertex="1">
          <mxGeometry x="745" y="540" width="120" height="60" as="geometry" />
        </mxCell>
        <mxCell id="6b2ZdlBM0GPliZROmy70-17" value="Специалисты по инструментальным средствам" style="rounded=0;whiteSpace=wrap;html=1;" parent="1" vertex="1">
          <mxGeometry x="745" y="450" width="120" height="60" as="geometry" />
        </mxCell>
        <mxCell id="6b2ZdlBM0GPliZROmy70-20" value="Менеджеры по работе с клиентами" style="rounded=0;whiteSpace=wrap;html=1;" parent="1" vertex="1">
          <mxGeometry x="1025" y="540" width="120" height="60" as="geometry" />
        </mxCell>
        <mxCell id="6b2ZdlBM0GPliZROmy70-25" value="Специалисты по оборудованию и ПО" style="rounded=0;whiteSpace=wrap;html=1;" parent="1" vertex="1">
          <mxGeometry x="525" y="540" width="120" height="60" as="geometry" />
        </mxCell>
        <mxCell id="6b2ZdlBM0GPliZROmy70-26" value="Руководитель отдела маркетинга и продаж" style="rounded=0;whiteSpace=wrap;html=1;" parent="1" vertex="1">
          <mxGeometry x="-225" y="350" width="120" height="60" as="geometry" />
        </mxCell>
        <mxCell id="6b2ZdlBM0GPliZROmy70-27" value="Менеджеры по маркетингу и продвижению" style="rounded=0;whiteSpace=wrap;html=1;" parent="1" vertex="1">
          <mxGeometry x="-225" y="520" width="120" height="60" as="geometry" />
        </mxCell>
        <mxCell id="6b2ZdlBM0GPliZROmy70-29" value="Руководитель отдела административной поддержки" style="rounded=0;whiteSpace=wrap;html=1;" parent="1" vertex="1">
          <mxGeometry x="-55" y="360" width="120" height="60" as="geometry" />
        </mxCell>
        <mxCell id="6b2ZdlBM0GPliZROmy70-31" value="Бухгалтеры и финансовые аналитики" style="rounded=0;whiteSpace=wrap;html=1;" parent="1" vertex="1">
          <mxGeometry x="249" y="530" width="120" height="60" as="geometry" />
        </mxCell>
        <mxCell id="6b2ZdlBM0GPliZROmy70-32" value="Юристы&amp;nbsp;" style="rounded=0;whiteSpace=wrap;html=1;" parent="1" vertex="1">
          <mxGeometry x="-75" y="520" width="120" height="60" as="geometry" />
        </mxCell>
        <mxCell id="6b2ZdlBM0GPliZROmy70-33" value="" style="endArrow=none;html=1;rounded=0;edgeStyle=orthogonalEdgeStyle;startArrow=classic;startFill=1;" parent="1" edge="1">
          <mxGeometry width="50" height="50" relative="1" as="geometry">
            <mxPoint x="445" y="360" as="sourcePoint" />
            <mxPoint x="445" y="250" as="targetPoint" />
          </mxGeometry>
        </mxCell>
        <mxCell id="6b2ZdlBM0GPliZROmy70-36" value="" style="endArrow=none;html=1;rounded=0;exitX=0.44;exitY=-0.007;exitDx=0;exitDy=0;exitPerimeter=0;edgeStyle=orthogonalEdgeStyle;startArrow=classic;startFill=1;" parent="1" source="6b2ZdlBM0GPliZROmy70-29" edge="1">
          <mxGeometry width="50" height="50" relative="1" as="geometry">
            <mxPoint x="58" y="340" as="sourcePoint" />
            <mxPoint x="428" y="250" as="targetPoint" />
            <Array as="points">
              <mxPoint x="5" y="360" />
              <mxPoint x="5" y="305" />
              <mxPoint x="445" y="305" />
              <mxPoint x="445" y="250" />
            </Array>
          </mxGeometry>
        </mxCell>
        <mxCell id="iuYzvlmwXIcNiJCF_kHH-3" value="" style="endArrow=none;html=1;rounded=0;entryX=0.5;entryY=1;entryDx=0;entryDy=0;exitX=0.5;exitY=0;exitDx=0;exitDy=0;edgeStyle=orthogonalEdgeStyle;startArrow=classic;startFill=1;" parent="1" source="6b2ZdlBM0GPliZROmy70-26" target="6b2ZdlBM0GPliZROmy70-1" edge="1">
          <mxGeometry width="50" height="50" relative="1" as="geometry">
            <mxPoint x="-35" y="290" as="sourcePoint" />
            <mxPoint x="15" y="240" as="targetPoint" />
          </mxGeometry>
        </mxCell>
        <mxCell id="iuYzvlmwXIcNiJCF_kHH-4" value="" style="endArrow=none;html=1;rounded=0;entryX=0.5;entryY=1;entryDx=0;entryDy=0;exitX=0.5;exitY=0;exitDx=0;exitDy=0;startArrow=classic;startFill=1;" parent="1" source="6b2ZdlBM0GPliZROmy70-27" target="6b2ZdlBM0GPliZROmy70-26" edge="1">
          <mxGeometry width="50" height="50" relative="1" as="geometry">
            <mxPoint x="-195" y="550" as="sourcePoint" />
            <mxPoint x="-145" y="500" as="targetPoint" />
          </mxGeometry>
        </mxCell>
        <mxCell id="iuYzvlmwXIcNiJCF_kHH-6" value="" style="endArrow=none;html=1;rounded=0;exitX=0.5;exitY=0;exitDx=0;exitDy=0;startArrow=classic;startFill=1;entryX=0.342;entryY=0.983;entryDx=0;entryDy=0;entryPerimeter=0;" parent="1" source="6b2ZdlBM0GPliZROmy70-32" target="6b2ZdlBM0GPliZROmy70-29" edge="1">
          <mxGeometry width="50" height="50" relative="1" as="geometry">
            <mxPoint x="94.79999999999998" y="450" as="sourcePoint" />
            <mxPoint x="35" y="430" as="targetPoint" />
          </mxGeometry>
        </mxCell>
        <mxCell id="iuYzvlmwXIcNiJCF_kHH-8" value="" style="endArrow=none;html=1;rounded=0;entryX=0.5;entryY=1;entryDx=0;entryDy=0;exitX=0.5;exitY=0;exitDx=0;exitDy=0;startArrow=classic;startFill=1;" parent="1" edge="1">
          <mxGeometry width="50" height="50" relative="1" as="geometry">
            <mxPoint x="314" y="530" as="sourcePoint" />
            <mxPoint x="314" y="500" as="targetPoint" />
          </mxGeometry>
        </mxCell>
        <mxCell id="iuYzvlmwXIcNiJCF_kHH-9" value="" style="endArrow=none;html=1;rounded=0;entryX=0.5;entryY=1;entryDx=0;entryDy=0;exitX=0.5;exitY=0;exitDx=0;exitDy=0;startArrow=classic;startFill=1;" parent="1" edge="1">
          <mxGeometry width="50" height="50" relative="1" as="geometry">
            <mxPoint x="584.5" y="540" as="sourcePoint" />
            <mxPoint x="584.5" y="510" as="targetPoint" />
          </mxGeometry>
        </mxCell>
        <mxCell id="iuYzvlmwXIcNiJCF_kHH-13" value="" style="endArrow=none;html=1;rounded=0;entryX=0.5;entryY=1;entryDx=0;entryDy=0;exitX=0.5;exitY=0;exitDx=0;exitDy=0;startArrow=classic;startFill=1;" parent="1" edge="1">
          <mxGeometry width="50" height="50" relative="1" as="geometry">
            <mxPoint x="804.8" y="540" as="sourcePoint" />
            <mxPoint x="804.8" y="510" as="targetPoint" />
          </mxGeometry>
        </mxCell>
        <mxCell id="iuYzvlmwXIcNiJCF_kHH-18" value="" style="endArrow=none;html=1;rounded=0;entryX=0.5;entryY=1;entryDx=0;entryDy=0;exitX=0.5;exitY=0;exitDx=0;exitDy=0;edgeStyle=orthogonalEdgeStyle;startArrow=classic;startFill=1;" parent="1" edge="1">
          <mxGeometry width="50" height="50" relative="1" as="geometry">
            <mxPoint x="804.8" y="450" as="sourcePoint" />
            <mxPoint x="945" y="419.9999999999998" as="targetPoint" />
            <Array as="points">
              <mxPoint x="805" y="430" />
              <mxPoint x="945" y="430" />
            </Array>
          </mxGeometry>
        </mxCell>
        <mxCell id="iuYzvlmwXIcNiJCF_kHH-19" value="" style="endArrow=none;html=1;rounded=0;exitX=0.5;exitY=0;exitDx=0;exitDy=0;edgeStyle=orthogonalEdgeStyle;startArrow=classic;startFill=1;" parent="1" source="6b2ZdlBM0GPliZROmy70-20" edge="1">
          <mxGeometry width="50" height="50" relative="1" as="geometry">
            <mxPoint x="885" y="430" as="sourcePoint" />
            <mxPoint x="945" y="420" as="targetPoint" />
            <Array as="points">
              <mxPoint x="1085" y="430" />
              <mxPoint x="945" y="430" />
            </Array>
          </mxGeometry>
        </mxCell>
        <mxCell id="iuYzvlmwXIcNiJCF_kHH-20" value="" style="endArrow=none;html=1;rounded=0;entryX=0.5;entryY=1;entryDx=0;entryDy=0;exitX=0.5;exitY=0;exitDx=0;exitDy=0;edgeStyle=orthogonalEdgeStyle;startArrow=classic;startFill=1;" parent="1" source="6b2ZdlBM0GPliZROmy70-9" target="6b2ZdlBM0GPliZROmy70-5" edge="1">
          <mxGeometry width="50" height="50" relative="1" as="geometry">
            <mxPoint x="455" y="510" as="sourcePoint" />
            <mxPoint x="505" y="460" as="targetPoint" />
          </mxGeometry>
        </mxCell>
        <mxCell id="iuYzvlmwXIcNiJCF_kHH-21" value="" style="endArrow=none;html=1;rounded=0;exitX=0.5;exitY=0;exitDx=0;exitDy=0;edgeStyle=orthogonalEdgeStyle;startArrow=classic;startFill=1;" parent="1" source="6b2ZdlBM0GPliZROmy70-8" edge="1">
          <mxGeometry width="50" height="50" relative="1" as="geometry">
            <mxPoint x="455" y="510" as="sourcePoint" />
            <mxPoint x="445" y="420" as="targetPoint" />
          </mxGeometry>
        </mxCell>
        <mxCell id="nrnErWFvbXQyUceWhHJY-11" style="edgeStyle=orthogonalEdgeStyle;rounded=0;orthogonalLoop=1;jettySize=auto;html=1;" edge="1" parent="1" source="X_DyiIEWOo_TwhWUqL3B-62">
          <mxGeometry relative="1" as="geometry">
            <mxPoint x="1140" y="1120" as="targetPoint" />
          </mxGeometry>
        </mxCell>
        <mxCell id="nrnErWFvbXQyUceWhHJY-12" value="Оказанная услуга" style="edgeLabel;html=1;align=center;verticalAlign=middle;resizable=0;points=[];" vertex="1" connectable="0" parent="nrnErWFvbXQyUceWhHJY-11">
          <mxGeometry x="0.0933" y="-3" relative="1" as="geometry">
            <mxPoint x="33" y="-13" as="offset" />
          </mxGeometry>
        </mxCell>
        <mxCell id="nrnErWFvbXQyUceWhHJY-17" style="edgeStyle=orthogonalEdgeStyle;rounded=0;orthogonalLoop=1;jettySize=auto;html=1;" edge="1" parent="1" source="X_DyiIEWOo_TwhWUqL3B-62">
          <mxGeometry relative="1" as="geometry">
            <mxPoint x="1210" y="1140" as="targetPoint" />
          </mxGeometry>
        </mxCell>
        <mxCell id="nrnErWFvbXQyUceWhHJY-18" value="Оформленный сотрудник" style="edgeLabel;html=1;align=center;verticalAlign=middle;resizable=0;points=[];" vertex="1" connectable="0" parent="nrnErWFvbXQyUceWhHJY-17">
          <mxGeometry x="0.5325" y="-4" relative="1" as="geometry">
            <mxPoint x="21" y="6" as="offset" />
          </mxGeometry>
        </mxCell>
        <mxCell id="X_DyiIEWOo_TwhWUqL3B-62" value="Осуществление курьерской доставки" style="rounded=0;whiteSpace=wrap;html=1;" parent="1" vertex="1">
          <mxGeometry x="730" y="1050" width="320" height="150" as="geometry" />
        </mxCell>
        <mxCell id="X_DyiIEWOo_TwhWUqL3B-63" value="" style="endArrow=classic;html=1;rounded=0;entryX=0;entryY=0.25;entryDx=0;entryDy=0;" parent="1" target="X_DyiIEWOo_TwhWUqL3B-62" edge="1">
          <mxGeometry width="50" height="50" relative="1" as="geometry">
            <mxPoint x="630" y="1085" as="sourcePoint" />
            <mxPoint x="660" y="1120" as="targetPoint" />
          </mxGeometry>
        </mxCell>
        <mxCell id="X_DyiIEWOo_TwhWUqL3B-65" value="Финансовые и материальные ресурсы" style="text;html=1;strokeColor=none;fillColor=none;align=center;verticalAlign=middle;whiteSpace=wrap;rounded=0;" parent="1" vertex="1">
          <mxGeometry x="640" y="1040" width="60" height="30" as="geometry" />
        </mxCell>
        <mxCell id="X_DyiIEWOo_TwhWUqL3B-68" value="" style="endArrow=classic;html=1;rounded=0;" parent="1" edge="1">
          <mxGeometry width="50" height="50" relative="1" as="geometry">
            <mxPoint x="640" y="1119.5" as="sourcePoint" />
            <mxPoint x="730" y="1119.5" as="targetPoint" />
          </mxGeometry>
        </mxCell>
        <mxCell id="nrnErWFvbXQyUceWhHJY-7" value="Заявка на доставку" style="edgeLabel;html=1;align=center;verticalAlign=middle;resizable=0;points=[];" vertex="1" connectable="0" parent="X_DyiIEWOo_TwhWUqL3B-68">
          <mxGeometry x="-0.4222" relative="1" as="geometry">
            <mxPoint y="1" as="offset" />
          </mxGeometry>
        </mxCell>
        <mxCell id="X_DyiIEWOo_TwhWUqL3B-72" value="Программисты" style="text;html=1;strokeColor=none;fillColor=none;align=center;verticalAlign=middle;whiteSpace=wrap;rounded=0;" parent="1" vertex="1">
          <mxGeometry x="900" y="1280" width="60" height="30" as="geometry" />
        </mxCell>
        <mxCell id="X_DyiIEWOo_TwhWUqL3B-79" value="" style="endArrow=classic;html=1;rounded=0;entryX=0;entryY=0.75;entryDx=0;entryDy=0;" parent="1" target="X_DyiIEWOo_TwhWUqL3B-62" edge="1">
          <mxGeometry width="50" height="50" relative="1" as="geometry">
            <mxPoint x="620" y="1155" as="sourcePoint" />
            <mxPoint x="860" y="1420" as="targetPoint" />
          </mxGeometry>
        </mxCell>
        <mxCell id="nrnErWFvbXQyUceWhHJY-8" value="Финансовые средства от заказчика" style="edgeLabel;html=1;align=center;verticalAlign=middle;resizable=0;points=[];" vertex="1" connectable="0" parent="X_DyiIEWOo_TwhWUqL3B-79">
          <mxGeometry x="-0.5091" y="-2" relative="1" as="geometry">
            <mxPoint x="-47" y="-17" as="offset" />
          </mxGeometry>
        </mxCell>
        <mxCell id="nrnErWFvbXQyUceWhHJY-10" value="Анализ конкурентов рынка" style="edgeLabel;html=1;align=center;verticalAlign=middle;resizable=0;points=[];" vertex="1" connectable="0" parent="X_DyiIEWOo_TwhWUqL3B-79">
          <mxGeometry x="-0.3091" y="-4" relative="1" as="geometry">
            <mxPoint x="-57" y="7" as="offset" />
          </mxGeometry>
        </mxCell>
        <mxCell id="X_DyiIEWOo_TwhWUqL3B-87" value="" style="endArrow=classic;html=1;rounded=0;exitX=0.5;exitY=0;exitDx=0;exitDy=0;entryX=0.625;entryY=1.027;entryDx=0;entryDy=0;entryPerimeter=0;" parent="1" source="X_DyiIEWOo_TwhWUqL3B-72" target="X_DyiIEWOo_TwhWUqL3B-62" edge="1">
          <mxGeometry width="50" height="50" relative="1" as="geometry">
            <mxPoint x="930" y="1270" as="sourcePoint" />
            <mxPoint x="930" y="1200" as="targetPoint" />
          </mxGeometry>
        </mxCell>
        <mxCell id="X_DyiIEWOo_TwhWUqL3B-91" value="" style="endArrow=classic;html=1;rounded=0;" parent="1" edge="1">
          <mxGeometry width="50" height="50" relative="1" as="geometry">
            <mxPoint x="1050" y="1080" as="sourcePoint" />
            <mxPoint x="1140" y="1080" as="targetPoint" />
          </mxGeometry>
        </mxCell>
        <mxCell id="nrnErWFvbXQyUceWhHJY-14" value="Отчетность для внешней среды" style="edgeLabel;html=1;align=center;verticalAlign=middle;resizable=0;points=[];" vertex="1" connectable="0" parent="X_DyiIEWOo_TwhWUqL3B-91">
          <mxGeometry x="-0.4889" y="1" relative="1" as="geometry">
            <mxPoint x="87" y="-9" as="offset" />
          </mxGeometry>
        </mxCell>
        <mxCell id="X_DyiIEWOo_TwhWUqL3B-92" value="" style="endArrow=classic;html=1;rounded=0;" parent="1" edge="1">
          <mxGeometry width="50" height="50" relative="1" as="geometry">
            <mxPoint x="1050" y="1160" as="sourcePoint" />
            <mxPoint x="1130" y="1160" as="targetPoint" />
          </mxGeometry>
        </mxCell>
        <mxCell id="nrnErWFvbXQyUceWhHJY-13" value="Отчетная документация" style="edgeLabel;html=1;align=center;verticalAlign=middle;resizable=0;points=[];" vertex="1" connectable="0" parent="X_DyiIEWOo_TwhWUqL3B-92">
          <mxGeometry x="0.225" y="-3" relative="1" as="geometry">
            <mxPoint x="11" y="7" as="offset" />
          </mxGeometry>
        </mxCell>
        <mxCell id="giCv-5dBFJXtNgNi9PLy-1" value="организация деятельности по созданию, внедрению и сопровождению ИС для клиентов" style="rounded=0;whiteSpace=wrap;html=1;" parent="1" vertex="1">
          <mxGeometry x="480" y="1614" width="200" height="100" as="geometry" />
        </mxCell>
        <mxCell id="cH5RoPgpv2FKXtCWTPLv-1" value="Организация&amp;nbsp; административной деятельности предприятия&amp;nbsp;" style="rounded=0;whiteSpace=wrap;html=1;" parent="1" vertex="1">
          <mxGeometry x="80" y="1460" width="200" height="100" as="geometry" />
        </mxCell>
        <mxCell id="cH5RoPgpv2FKXtCWTPLv-5" value="Шаблон документа" style="text;html=1;strokeColor=none;fillColor=none;align=center;verticalAlign=middle;whiteSpace=wrap;rounded=0;" parent="1" vertex="1">
          <mxGeometry x="-180" y="1460" width="110" height="30" as="geometry" />
        </mxCell>
        <mxCell id="cH5RoPgpv2FKXtCWTPLv-13" value="" style="endArrow=classic;html=1;rounded=0;" parent="1" edge="1">
          <mxGeometry width="50" height="50" relative="1" as="geometry">
            <mxPoint x="-170" y="1530" as="sourcePoint" />
            <mxPoint x="80" y="1530" as="targetPoint" />
          </mxGeometry>
        </mxCell>
        <mxCell id="cH5RoPgpv2FKXtCWTPLv-14" value="&amp;nbsp;организационная структура предприятия" style="text;html=1;strokeColor=none;fillColor=none;align=center;verticalAlign=middle;whiteSpace=wrap;rounded=0;" parent="1" vertex="1">
          <mxGeometry x="-190" y="1495" width="140" height="30" as="geometry" />
        </mxCell>
        <mxCell id="cH5RoPgpv2FKXtCWTPLv-16" value="" style="endArrow=classic;html=1;rounded=1;entryX=0;entryY=0.5;entryDx=0;entryDy=0;edgeStyle=orthogonalEdgeStyle;" parent="1" target="giCv-5dBFJXtNgNi9PLy-1" edge="1">
          <mxGeometry width="50" height="50" relative="1" as="geometry">
            <mxPoint x="280" y="1500" as="sourcePoint" />
            <mxPoint x="490" y="1500" as="targetPoint" />
            <Array as="points">
              <mxPoint x="410" y="1500" />
              <mxPoint x="410" y="1664" />
            </Array>
          </mxGeometry>
        </mxCell>
        <mxCell id="cH5RoPgpv2FKXtCWTPLv-17" value="распределение обязанностей и ответственности между сотрудниками," style="text;html=1;strokeColor=none;fillColor=none;align=center;verticalAlign=middle;whiteSpace=wrap;rounded=0;" parent="1" vertex="1">
          <mxGeometry x="240" y="1690" width="230" height="30" as="geometry" />
        </mxCell>
        <mxCell id="cH5RoPgpv2FKXtCWTPLv-18" value="" style="endArrow=classic;html=1;rounded=1;edgeStyle=orthogonalEdgeStyle;" parent="1" edge="1">
          <mxGeometry width="50" height="50" relative="1" as="geometry">
            <mxPoint x="280" y="1469" as="sourcePoint" />
            <mxPoint x="580" y="1470" as="targetPoint" />
            <Array as="points">
              <mxPoint x="280" y="1470" />
              <mxPoint x="440" y="1470" />
            </Array>
          </mxGeometry>
        </mxCell>
        <mxCell id="cH5RoPgpv2FKXtCWTPLv-19" value="отчеты о расходах и использовании бюджета" style="text;html=1;strokeColor=none;fillColor=none;align=center;verticalAlign=middle;whiteSpace=wrap;rounded=0;" parent="1" vertex="1">
          <mxGeometry x="334" y="1440" width="160" height="30" as="geometry" />
        </mxCell>
        <mxCell id="cH5RoPgpv2FKXtCWTPLv-20" value="" style="endArrow=classic;html=1;rounded=0;" parent="1" edge="1">
          <mxGeometry width="50" height="50" relative="1" as="geometry">
            <mxPoint x="680" y="1640" as="sourcePoint" />
            <mxPoint x="790" y="1640" as="targetPoint" />
          </mxGeometry>
        </mxCell>
        <mxCell id="cH5RoPgpv2FKXtCWTPLv-21" value="отчеты о выполненных работах," style="text;html=1;strokeColor=none;fillColor=none;align=center;verticalAlign=middle;whiteSpace=wrap;rounded=0;" parent="1" vertex="1">
          <mxGeometry x="690" y="1610" width="140" height="30" as="geometry" />
        </mxCell>
        <mxCell id="cH5RoPgpv2FKXtCWTPLv-22" value="" style="endArrow=classic;html=1;rounded=1;entryX=0;entryY=0.8;entryDx=0;entryDy=0;entryPerimeter=0;edgeStyle=orthogonalEdgeStyle;" parent="1" target="cH5RoPgpv2FKXtCWTPLv-1" edge="1">
          <mxGeometry width="50" height="50" relative="1" as="geometry">
            <mxPoint x="680" y="1704.58" as="sourcePoint" />
            <mxPoint x="790" y="1704.58" as="targetPoint" />
            <Array as="points">
              <mxPoint x="730" y="1705" />
              <mxPoint x="730" y="1760" />
              <mxPoint x="-190" y="1760" />
              <mxPoint x="-190" y="1540" />
            </Array>
          </mxGeometry>
        </mxCell>
        <mxCell id="cH5RoPgpv2FKXtCWTPLv-23" value="информация о расходах и использовании ресурсов" style="text;html=1;strokeColor=none;fillColor=none;align=center;verticalAlign=middle;whiteSpace=wrap;rounded=0;" parent="1" vertex="1">
          <mxGeometry x="160" y="1770" width="190" height="30" as="geometry" />
        </mxCell>
        <mxCell id="cH5RoPgpv2FKXtCWTPLv-24" value="" style="endArrow=classic;html=1;rounded=0;" parent="1" edge="1">
          <mxGeometry width="50" height="50" relative="1" as="geometry">
            <mxPoint x="680" y="1663.41" as="sourcePoint" />
            <mxPoint x="800" y="1663.41" as="targetPoint" />
          </mxGeometry>
        </mxCell>
        <mxCell id="cH5RoPgpv2FKXtCWTPLv-25" value="сопровождаемые ис" style="text;html=1;strokeColor=none;fillColor=none;align=center;verticalAlign=middle;whiteSpace=wrap;rounded=0;" parent="1" vertex="1">
          <mxGeometry x="658.28" y="1660" width="210" height="30" as="geometry" />
        </mxCell>
        <mxCell id="cH5RoPgpv2FKXtCWTPLv-29" value="" style="endArrow=classic;html=1;rounded=1;entryX=-0.015;entryY=0.62;entryDx=0;entryDy=0;entryPerimeter=0;edgeStyle=orthogonalEdgeStyle;" parent="1" target="giCv-5dBFJXtNgNi9PLy-1" edge="1">
          <mxGeometry width="50" height="50" relative="1" as="geometry">
            <mxPoint x="280" y="1520" as="sourcePoint" />
            <mxPoint x="400" y="1520" as="targetPoint" />
            <Array as="points">
              <mxPoint x="370" y="1520" />
              <mxPoint x="370" y="1676" />
            </Array>
          </mxGeometry>
        </mxCell>
        <mxCell id="cH5RoPgpv2FKXtCWTPLv-30" value="данные о конкурентах" style="text;html=1;strokeColor=none;fillColor=none;align=center;verticalAlign=middle;whiteSpace=wrap;rounded=0;" parent="1" vertex="1">
          <mxGeometry x="310" y="1570" width="120" height="30" as="geometry" />
        </mxCell>
        <mxCell id="cH5RoPgpv2FKXtCWTPLv-31" value="" style="endArrow=classic;html=1;rounded=1;entryX=-0.019;entryY=0.913;entryDx=0;entryDy=0;entryPerimeter=0;edgeStyle=orthogonalEdgeStyle;" parent="1" target="giCv-5dBFJXtNgNi9PLy-1" edge="1">
          <mxGeometry width="50" height="50" relative="1" as="geometry">
            <mxPoint x="280" y="1540" as="sourcePoint" />
            <mxPoint x="420" y="1540" as="targetPoint" />
            <Array as="points">
              <mxPoint x="320" y="1540" />
              <mxPoint x="320" y="1705" />
            </Array>
          </mxGeometry>
        </mxCell>
        <mxCell id="ilv5U9q2xcaSZ4rNsWVt-1" value="Прием и оформление заявки" style="rounded=0;whiteSpace=wrap;html=1;" parent="1" vertex="1">
          <mxGeometry x="-150" y="2130" width="170" height="100" as="geometry" />
        </mxCell>
        <mxCell id="nrnErWFvbXQyUceWhHJY-23" style="edgeStyle=orthogonalEdgeStyle;rounded=0;orthogonalLoop=1;jettySize=auto;html=1;entryX=0;entryY=0.25;entryDx=0;entryDy=0;exitX=0.871;exitY=0.043;exitDx=0;exitDy=0;exitPerimeter=0;" edge="1" parent="1" source="_DGLzaf6c6v-ZmG1vvUs-67" target="ilv5U9q2xcaSZ4rNsWVt-1">
          <mxGeometry relative="1" as="geometry">
            <Array as="points">
              <mxPoint x="340" y="2321" />
              <mxPoint x="340" y="2370" />
              <mxPoint x="-170" y="2370" />
              <mxPoint x="-170" y="2155" />
            </Array>
          </mxGeometry>
        </mxCell>
        <mxCell id="nrnErWFvbXQyUceWhHJY-24" value="прайс" style="edgeLabel;html=1;align=center;verticalAlign=middle;resizable=0;points=[];" vertex="1" connectable="0" parent="nrnErWFvbXQyUceWhHJY-23">
          <mxGeometry x="-0.4374" y="2" relative="1" as="geometry">
            <mxPoint as="offset" />
          </mxGeometry>
        </mxCell>
        <mxCell id="ilv5U9q2xcaSZ4rNsWVt-2" value="Организация финансового учета" style="rounded=0;whiteSpace=wrap;html=1;" parent="1" vertex="1">
          <mxGeometry x="137.5" y="2250" width="185" height="100" as="geometry" />
        </mxCell>
        <mxCell id="ilv5U9q2xcaSZ4rNsWVt-3" value="Организация прочей административной деятельности" style="rounded=0;whiteSpace=wrap;html=1;" parent="1" vertex="1">
          <mxGeometry x="470" y="2370" width="190" height="100" as="geometry" />
        </mxCell>
        <mxCell id="ilv5U9q2xcaSZ4rNsWVt-6" value="" style="endArrow=classic;html=1;rounded=0;" parent="1" edge="1">
          <mxGeometry width="50" height="50" relative="1" as="geometry">
            <mxPoint x="580" y="1540" as="sourcePoint" />
            <mxPoint x="580" y="1610" as="targetPoint" />
          </mxGeometry>
        </mxCell>
        <mxCell id="ilv5U9q2xcaSZ4rNsWVt-8" value="руководитель отдела по работе с клиентом" style="text;html=1;strokeColor=none;fillColor=none;align=center;verticalAlign=middle;whiteSpace=wrap;rounded=0;" parent="1" vertex="1">
          <mxGeometry x="540.5" y="1500" width="80" height="30" as="geometry" />
        </mxCell>
        <mxCell id="ilv5U9q2xcaSZ4rNsWVt-13" value="" style="endArrow=classic;html=1;rounded=0;" parent="1" edge="1">
          <mxGeometry width="50" height="50" relative="1" as="geometry">
            <mxPoint x="119" y="1640" as="sourcePoint" />
            <mxPoint x="119" y="1560" as="targetPoint" />
          </mxGeometry>
        </mxCell>
        <mxCell id="ilv5U9q2xcaSZ4rNsWVt-15" value="Бухгалтеры и финансовые аналитики" style="text;html=1;strokeColor=none;fillColor=none;align=center;verticalAlign=middle;whiteSpace=wrap;rounded=0;" parent="1" vertex="1">
          <mxGeometry x="90" y="1649" width="60" height="30" as="geometry" />
        </mxCell>
        <mxCell id="ilv5U9q2xcaSZ4rNsWVt-17" value="" style="endArrow=classic;html=1;rounded=0;" parent="1" edge="1">
          <mxGeometry width="50" height="50" relative="1" as="geometry">
            <mxPoint x="210" y="1630" as="sourcePoint" />
            <mxPoint x="210" y="1561" as="targetPoint" />
          </mxGeometry>
        </mxCell>
        <mxCell id="ilv5U9q2xcaSZ4rNsWVt-18" value="Специалисты по управлению материальными ресурсами&amp;nbsp;" style="text;html=1;strokeColor=none;fillColor=none;align=center;verticalAlign=middle;whiteSpace=wrap;rounded=0;" parent="1" vertex="1">
          <mxGeometry x="180" y="1649" width="60" height="30" as="geometry" />
        </mxCell>
        <mxCell id="ilv5U9q2xcaSZ4rNsWVt-21" value="" style="endArrow=classic;html=1;rounded=0;" parent="1" edge="1">
          <mxGeometry width="50" height="50" relative="1" as="geometry">
            <mxPoint x="600" y="1820" as="sourcePoint" />
            <mxPoint x="600" y="1714" as="targetPoint" />
          </mxGeometry>
        </mxCell>
        <mxCell id="rYrMTj0-VR9Pnu8nQPqp-16" style="edgeStyle=orthogonalEdgeStyle;rounded=0;orthogonalLoop=1;jettySize=auto;html=1;" parent="1" source="ilv5U9q2xcaSZ4rNsWVt-22" edge="1">
          <mxGeometry relative="1" as="geometry">
            <mxPoint x="600" y="1800" as="targetPoint" />
          </mxGeometry>
        </mxCell>
        <mxCell id="ilv5U9q2xcaSZ4rNsWVt-22" value="Специалисты по инструментальным средствам" style="text;html=1;strokeColor=none;fillColor=none;align=center;verticalAlign=middle;whiteSpace=wrap;rounded=0;" parent="1" vertex="1">
          <mxGeometry x="545" y="1860" width="110" height="30" as="geometry" />
        </mxCell>
        <mxCell id="ilv5U9q2xcaSZ4rNsWVt-26" value="" style="endArrow=classic;html=1;rounded=1;entryX=-0.024;entryY=0.69;entryDx=0;entryDy=0;entryPerimeter=0;edgeStyle=orthogonalEdgeStyle;" parent="1" target="ilv5U9q2xcaSZ4rNsWVt-1" edge="1">
          <mxGeometry width="50" height="50" relative="1" as="geometry">
            <mxPoint x="320" y="2338" as="sourcePoint" />
            <mxPoint x="450" y="2338" as="targetPoint" />
            <Array as="points">
              <mxPoint x="380" y="2338" />
              <mxPoint x="380" y="2400" />
              <mxPoint x="-220" y="2400" />
              <mxPoint x="-220" y="2199" />
            </Array>
          </mxGeometry>
        </mxCell>
        <mxCell id="ilv5U9q2xcaSZ4rNsWVt-27" value="Необходимость увеличения цены в зависимости от количество заказов в минуту" style="text;html=1;strokeColor=none;fillColor=none;align=center;verticalAlign=middle;whiteSpace=wrap;rounded=0;" parent="1" vertex="1">
          <mxGeometry y="2420" width="200" height="30" as="geometry" />
        </mxCell>
        <mxCell id="ilv5U9q2xcaSZ4rNsWVt-28" value="" style="endArrow=classic;html=1;rounded=0;" parent="1" edge="1">
          <mxGeometry width="50" height="50" relative="1" as="geometry">
            <mxPoint x="660" y="2390" as="sourcePoint" />
            <mxPoint x="785" y="2390" as="targetPoint" />
          </mxGeometry>
        </mxCell>
        <mxCell id="ilv5U9q2xcaSZ4rNsWVt-30" value="" style="endArrow=classic;html=1;rounded=1;entryX=-0.008;entryY=0.09;entryDx=0;entryDy=0;entryPerimeter=0;edgeStyle=orthogonalEdgeStyle;" parent="1" target="ilv5U9q2xcaSZ4rNsWVt-2" edge="1">
          <mxGeometry width="50" height="50" relative="1" as="geometry">
            <mxPoint x="20" y="2140" as="sourcePoint" />
            <mxPoint x="155" y="2140" as="targetPoint" />
            <Array as="points">
              <mxPoint x="20" y="2141" />
              <mxPoint x="100" y="2141" />
              <mxPoint x="100" y="2259" />
            </Array>
          </mxGeometry>
        </mxCell>
        <mxCell id="ilv5U9q2xcaSZ4rNsWVt-31" value="новые заявки" style="text;html=1;strokeColor=none;fillColor=none;align=center;verticalAlign=middle;whiteSpace=wrap;rounded=0;" parent="1" vertex="1">
          <mxGeometry x="30" y="2120" width="140" height="20" as="geometry" />
        </mxCell>
        <mxCell id="ilv5U9q2xcaSZ4rNsWVt-32" value="" style="endArrow=classic;html=1;rounded=1;entryX=-0.019;entryY=0.142;entryDx=0;entryDy=0;entryPerimeter=0;edgeStyle=orthogonalEdgeStyle;" parent="1" target="ilv5U9q2xcaSZ4rNsWVt-3" edge="1">
          <mxGeometry width="50" height="50" relative="1" as="geometry">
            <mxPoint x="20" y="2140" as="sourcePoint" />
            <mxPoint x="205" y="2150" as="targetPoint" />
            <Array as="points">
              <mxPoint x="440" y="2141" />
              <mxPoint x="440" y="2384" />
            </Array>
          </mxGeometry>
        </mxCell>
        <mxCell id="ilv5U9q2xcaSZ4rNsWVt-33" value="" style="endArrow=classic;html=1;rounded=1;entryX=-0.015;entryY=0.358;entryDx=0;entryDy=0;entryPerimeter=0;edgeStyle=orthogonalEdgeStyle;" parent="1" target="ilv5U9q2xcaSZ4rNsWVt-2" edge="1">
          <mxGeometry width="50" height="50" relative="1" as="geometry">
            <mxPoint x="20" y="2170" as="sourcePoint" />
            <mxPoint x="150" y="2170" as="targetPoint" />
            <Array as="points">
              <mxPoint x="80" y="2171" />
              <mxPoint x="80" y="2286" />
            </Array>
          </mxGeometry>
        </mxCell>
        <mxCell id="ilv5U9q2xcaSZ4rNsWVt-40" value="количество заявок" style="edgeLabel;html=1;align=center;verticalAlign=middle;resizable=0;points=[];" parent="ilv5U9q2xcaSZ4rNsWVt-33" vertex="1" connectable="0">
          <mxGeometry x="-0.2231" y="-1" relative="1" as="geometry">
            <mxPoint x="9" y="-11" as="offset" />
          </mxGeometry>
        </mxCell>
        <mxCell id="ilv5U9q2xcaSZ4rNsWVt-36" value="" style="endArrow=classic;html=1;rounded=1;entryX=-0.015;entryY=0.642;entryDx=0;entryDy=0;entryPerimeter=0;edgeStyle=orthogonalEdgeStyle;" parent="1" target="ilv5U9q2xcaSZ4rNsWVt-2" edge="1">
          <mxGeometry width="50" height="50" relative="1" as="geometry">
            <mxPoint x="17.5" y="2210" as="sourcePoint" />
            <mxPoint x="137.5" y="2210" as="targetPoint" />
            <Array as="points">
              <mxPoint x="60" y="2211" />
              <mxPoint x="60" y="2314" />
            </Array>
          </mxGeometry>
        </mxCell>
        <mxCell id="ilv5U9q2xcaSZ4rNsWVt-42" value="планирование маршрута заявки" style="edgeLabel;html=1;align=center;verticalAlign=middle;resizable=0;points=[];" parent="ilv5U9q2xcaSZ4rNsWVt-36" vertex="1" connectable="0">
          <mxGeometry x="-0.0184" y="1" relative="1" as="geometry">
            <mxPoint x="-21" y="-27" as="offset" />
          </mxGeometry>
        </mxCell>
        <mxCell id="ilv5U9q2xcaSZ4rNsWVt-43" value="" style="endArrow=classic;html=1;rounded=1;entryX=-0.028;entryY=0.4;entryDx=0;entryDy=0;entryPerimeter=0;edgeStyle=orthogonalEdgeStyle;" parent="1" target="ilv5U9q2xcaSZ4rNsWVt-3" edge="1">
          <mxGeometry width="50" height="50" relative="1" as="geometry">
            <mxPoint x="322.5" y="2290" as="sourcePoint" />
            <mxPoint x="422.5" y="2290" as="targetPoint" />
            <Array as="points">
              <mxPoint x="420" y="2291" />
              <mxPoint x="420" y="2410" />
            </Array>
          </mxGeometry>
        </mxCell>
        <mxCell id="ilv5U9q2xcaSZ4rNsWVt-44" value="финансирование" style="edgeLabel;html=1;align=center;verticalAlign=middle;resizable=0;points=[];" parent="ilv5U9q2xcaSZ4rNsWVt-43" vertex="1" connectable="0">
          <mxGeometry x="0.1729" y="-2" relative="1" as="geometry">
            <mxPoint x="-38" y="-67" as="offset" />
          </mxGeometry>
        </mxCell>
        <mxCell id="ilv5U9q2xcaSZ4rNsWVt-45" value="" style="endArrow=classic;html=1;rounded=1;entryX=-0.026;entryY=0.45;entryDx=0;entryDy=0;entryPerimeter=0;edgeStyle=orthogonalEdgeStyle;exitX=1.007;exitY=0.125;exitDx=0;exitDy=0;exitPerimeter=0;" parent="1" source="ilv5U9q2xcaSZ4rNsWVt-2" target="ilv5U9q2xcaSZ4rNsWVt-1" edge="1">
          <mxGeometry width="50" height="50" relative="1" as="geometry">
            <mxPoint x="350" y="2270" as="sourcePoint" />
            <mxPoint x="402.5" y="2270" as="targetPoint" />
            <Array as="points">
              <mxPoint x="390" y="2263" />
              <mxPoint x="390" y="2380" />
              <mxPoint x="-250" y="2380" />
              <mxPoint x="-250" y="2175" />
            </Array>
          </mxGeometry>
        </mxCell>
        <mxCell id="ilv5U9q2xcaSZ4rNsWVt-46" value="квитанция об оплате" style="edgeLabel;html=1;align=center;verticalAlign=middle;resizable=0;points=[];" parent="ilv5U9q2xcaSZ4rNsWVt-45" vertex="1" connectable="0">
          <mxGeometry x="0.5125" relative="1" as="geometry">
            <mxPoint x="330" y="26" as="offset" />
          </mxGeometry>
        </mxCell>
        <mxCell id="ilv5U9q2xcaSZ4rNsWVt-47" value="" style="endArrow=classic;html=1;rounded=1;entryX=-0.024;entryY=0.642;entryDx=0;entryDy=0;entryPerimeter=0;edgeStyle=orthogonalEdgeStyle;" parent="1" target="ilv5U9q2xcaSZ4rNsWVt-3" edge="1">
          <mxGeometry width="50" height="50" relative="1" as="geometry">
            <mxPoint x="320" y="2310" as="sourcePoint" />
            <mxPoint x="410" y="2310" as="targetPoint" />
            <Array as="points">
              <mxPoint x="410" y="2311" />
              <mxPoint x="410" y="2434" />
            </Array>
          </mxGeometry>
        </mxCell>
        <mxCell id="ilv5U9q2xcaSZ4rNsWVt-48" value="финансовый &lt;br&gt;анализ" style="edgeLabel;html=1;align=center;verticalAlign=middle;resizable=0;points=[];" parent="ilv5U9q2xcaSZ4rNsWVt-47" vertex="1" connectable="0">
          <mxGeometry x="0.37" relative="1" as="geometry">
            <mxPoint x="-50" y="-95" as="offset" />
          </mxGeometry>
        </mxCell>
        <mxCell id="ilv5U9q2xcaSZ4rNsWVt-50" value="оценка эффективности маркетинговых мероприятий" style="text;html=1;strokeColor=none;fillColor=none;align=center;verticalAlign=middle;whiteSpace=wrap;rounded=0;" parent="1" vertex="1">
          <mxGeometry x="660" y="2350" width="180" height="30" as="geometry" />
        </mxCell>
        <mxCell id="ilv5U9q2xcaSZ4rNsWVt-52" value="" style="endArrow=classic;html=1;rounded=0;" parent="1" edge="1">
          <mxGeometry width="50" height="50" relative="1" as="geometry">
            <mxPoint x="660" y="2419.17" as="sourcePoint" />
            <mxPoint x="830.2325581395348" y="2419" as="targetPoint" />
          </mxGeometry>
        </mxCell>
        <mxCell id="ilv5U9q2xcaSZ4rNsWVt-53" value="Определение ценовой политики" style="text;html=1;strokeColor=none;fillColor=none;align=center;verticalAlign=middle;whiteSpace=wrap;rounded=0;" parent="1" vertex="1">
          <mxGeometry x="835" y="2405" width="110" height="30" as="geometry" />
        </mxCell>
        <mxCell id="ilv5U9q2xcaSZ4rNsWVt-54" value="" style="endArrow=classic;html=1;rounded=0;" parent="1" edge="1">
          <mxGeometry width="50" height="50" relative="1" as="geometry">
            <mxPoint x="660" y="2450" as="sourcePoint" />
            <mxPoint x="770" y="2450" as="targetPoint" />
          </mxGeometry>
        </mxCell>
        <mxCell id="ilv5U9q2xcaSZ4rNsWVt-55" value="Маркетинговые мероприятия" style="text;html=1;strokeColor=none;fillColor=none;align=center;verticalAlign=middle;whiteSpace=wrap;rounded=0;" parent="1" vertex="1">
          <mxGeometry x="690" y="2450" width="60" height="30" as="geometry" />
        </mxCell>
        <mxCell id="ilv5U9q2xcaSZ4rNsWVt-56" value="" style="endArrow=classic;html=1;rounded=0;" parent="1" edge="1">
          <mxGeometry width="50" height="50" relative="1" as="geometry">
            <mxPoint x="-110" y="2050" as="sourcePoint" />
            <mxPoint x="-110" y="2130" as="targetPoint" />
          </mxGeometry>
        </mxCell>
        <mxCell id="ilv5U9q2xcaSZ4rNsWVt-57" value="курьеры службы" style="edgeLabel;html=1;align=center;verticalAlign=middle;resizable=0;points=[];" parent="ilv5U9q2xcaSZ4rNsWVt-56" vertex="1" connectable="0">
          <mxGeometry x="-0.375" y="2" relative="1" as="geometry">
            <mxPoint x="28" y="235" as="offset" />
          </mxGeometry>
        </mxCell>
        <mxCell id="xIVhRgSLY87ZJ8C9RX9J-19" value="Шаблон оформления заявки" style="edgeLabel;html=1;align=center;verticalAlign=middle;resizable=0;points=[];" vertex="1" connectable="0" parent="ilv5U9q2xcaSZ4rNsWVt-56">
          <mxGeometry x="-0.0456" y="3" relative="1" as="geometry">
            <mxPoint y="1" as="offset" />
          </mxGeometry>
        </mxCell>
        <mxCell id="ilv5U9q2xcaSZ4rNsWVt-60" value="" style="endArrow=classic;html=1;rounded=1;entryX=0.57;entryY=-0.05;entryDx=0;entryDy=0;entryPerimeter=0;edgeStyle=orthogonalEdgeStyle;" parent="1" target="ilv5U9q2xcaSZ4rNsWVt-2" edge="1">
          <mxGeometry width="50" height="50" relative="1" as="geometry">
            <mxPoint x="-20" y="2080" as="sourcePoint" />
            <mxPoint x="360" y="1990" as="targetPoint" />
          </mxGeometry>
        </mxCell>
        <mxCell id="ilv5U9q2xcaSZ4rNsWVt-61" value="" style="endArrow=classic;html=1;rounded=1;entryX=0.5;entryY=0;entryDx=0;entryDy=0;edgeStyle=orthogonalEdgeStyle;" parent="1" target="ilv5U9q2xcaSZ4rNsWVt-3" edge="1">
          <mxGeometry width="50" height="50" relative="1" as="geometry">
            <mxPoint x="-20" y="2080" as="sourcePoint" />
            <mxPoint x="360" y="1990" as="targetPoint" />
          </mxGeometry>
        </mxCell>
        <mxCell id="ilv5U9q2xcaSZ4rNsWVt-63" value="" style="endArrow=classic;html=1;rounded=0;" parent="1" edge="1">
          <mxGeometry width="50" height="50" relative="1" as="geometry">
            <mxPoint x="280" y="2150" as="sourcePoint" />
            <mxPoint x="280" y="2250" as="targetPoint" />
          </mxGeometry>
        </mxCell>
        <mxCell id="ilv5U9q2xcaSZ4rNsWVt-64" value="финансовый&amp;nbsp;&lt;br&gt;менеджер" style="edgeLabel;html=1;align=center;verticalAlign=middle;resizable=0;points=[];" parent="ilv5U9q2xcaSZ4rNsWVt-63" vertex="1" connectable="0">
          <mxGeometry x="0.2267" y="-1" relative="1" as="geometry">
            <mxPoint x="11" y="-22" as="offset" />
          </mxGeometry>
        </mxCell>
        <mxCell id="ilv5U9q2xcaSZ4rNsWVt-65" value="" style="endArrow=classic;html=1;rounded=0;" parent="1" edge="1">
          <mxGeometry width="50" height="50" relative="1" as="geometry">
            <mxPoint x="610" y="2300" as="sourcePoint" />
            <mxPoint x="610" y="2370" as="targetPoint" />
          </mxGeometry>
        </mxCell>
        <mxCell id="ilv5U9q2xcaSZ4rNsWVt-66" value="Руководитель &lt;br&gt;отдела маркетинга&lt;br&gt;&amp;nbsp;и продаж" style="edgeLabel;html=1;align=center;verticalAlign=middle;resizable=0;points=[];" parent="ilv5U9q2xcaSZ4rNsWVt-65" vertex="1" connectable="0">
          <mxGeometry x="-0.5714" relative="1" as="geometry">
            <mxPoint x="20" y="-25" as="offset" />
          </mxGeometry>
        </mxCell>
        <mxCell id="ilv5U9q2xcaSZ4rNsWVt-67" value="" style="endArrow=classic;html=1;rounded=0;" parent="1" edge="1">
          <mxGeometry width="50" height="50" relative="1" as="geometry">
            <mxPoint x="540" y="2540" as="sourcePoint" />
            <mxPoint x="540" y="2470" as="targetPoint" />
          </mxGeometry>
        </mxCell>
        <mxCell id="ilv5U9q2xcaSZ4rNsWVt-68" value="Команда по &lt;br&gt;маркетингу &lt;br&gt;контента" style="text;html=1;align=center;verticalAlign=middle;resizable=0;points=[];autosize=1;strokeColor=none;fillColor=none;" parent="1" vertex="1">
          <mxGeometry x="490" y="2530" width="90" height="60" as="geometry" />
        </mxCell>
        <mxCell id="ilv5U9q2xcaSZ4rNsWVt-69" value="" style="endArrow=classic;html=1;rounded=0;entryX=0.02;entryY=-0.05;entryDx=0;entryDy=0;entryPerimeter=0;" parent="1" edge="1">
          <mxGeometry width="50" height="50" relative="1" as="geometry">
            <mxPoint x="519" y="2300" as="sourcePoint" />
            <mxPoint x="519.4000000000002" y="2370" as="targetPoint" />
          </mxGeometry>
        </mxCell>
        <mxCell id="ilv5U9q2xcaSZ4rNsWVt-70" value="Менеджеры по &lt;br&gt;маркетингу и &lt;br&gt;продвижению" style="edgeLabel;html=1;align=center;verticalAlign=middle;resizable=0;points=[];" parent="ilv5U9q2xcaSZ4rNsWVt-69" vertex="1" connectable="0">
          <mxGeometry x="-0.381" relative="1" as="geometry">
            <mxPoint x="-9" y="-42" as="offset" />
          </mxGeometry>
        </mxCell>
        <mxCell id="ilv5U9q2xcaSZ4rNsWVt-71" value="" style="endArrow=classic;html=1;rounded=0;entryX=0.639;entryY=1.027;entryDx=0;entryDy=0;entryPerimeter=0;" parent="1" edge="1">
          <mxGeometry width="50" height="50" relative="1" as="geometry">
            <mxPoint x="255.19" y="2470" as="sourcePoint" />
            <mxPoint x="255.39499999999992" y="2352.7000000000003" as="targetPoint" />
          </mxGeometry>
        </mxCell>
        <mxCell id="ilv5U9q2xcaSZ4rNsWVt-72" value="Бухгалтеры и &lt;br&gt;финансовые &lt;br&gt;аналитики" style="edgeLabel;html=1;align=center;verticalAlign=middle;resizable=0;points=[];" parent="ilv5U9q2xcaSZ4rNsWVt-71" vertex="1" connectable="0">
          <mxGeometry x="-0.6042" y="1" relative="1" as="geometry">
            <mxPoint x="1" y="13" as="offset" />
          </mxGeometry>
        </mxCell>
        <mxCell id="ilv5U9q2xcaSZ4rNsWVt-73" value="Процесс принятия заявок" style="rounded=0;whiteSpace=wrap;html=1;" parent="1" vertex="1">
          <mxGeometry x="-40" y="2820" width="210" height="120" as="geometry" />
        </mxCell>
        <mxCell id="_DGLzaf6c6v-ZmG1vvUs-1" value="Внесение сведений о новом заказе" style="rounded=0;whiteSpace=wrap;html=1;" parent="1" vertex="1">
          <mxGeometry x="350" y="2923" width="160" height="100" as="geometry" />
        </mxCell>
        <mxCell id="_DGLzaf6c6v-ZmG1vvUs-2" value="Процесс увеличения цены заявки" style="rounded=0;whiteSpace=wrap;html=1;" parent="1" vertex="1">
          <mxGeometry x="890" y="2863" width="160" height="90" as="geometry" />
        </mxCell>
        <mxCell id="rYrMTj0-VR9Pnu8nQPqp-19" style="edgeStyle=orthogonalEdgeStyle;rounded=0;orthogonalLoop=1;jettySize=auto;html=1;" parent="1" source="_DGLzaf6c6v-ZmG1vvUs-3" edge="1">
          <mxGeometry relative="1" as="geometry">
            <mxPoint x="1170" y="3180" as="targetPoint" />
          </mxGeometry>
        </mxCell>
        <mxCell id="_DGLzaf6c6v-ZmG1vvUs-3" value="Процесс снижение цены заявки" style="rounded=0;whiteSpace=wrap;html=1;" parent="1" vertex="1">
          <mxGeometry x="890" y="3130" width="160" height="100" as="geometry" />
        </mxCell>
        <mxCell id="_DGLzaf6c6v-ZmG1vvUs-4" value="Организация автоматизации заявок" style="rounded=0;whiteSpace=wrap;html=1;" parent="1" vertex="1">
          <mxGeometry x="660" y="3000" width="111.72" height="100" as="geometry" />
        </mxCell>
        <mxCell id="_DGLzaf6c6v-ZmG1vvUs-6" value="" style="endArrow=classic;html=1;rounded=0;entryX=0.419;entryY=1.032;entryDx=0;entryDy=0;entryPerimeter=0;" parent="1" target="ilv5U9q2xcaSZ4rNsWVt-1" edge="1">
          <mxGeometry width="50" height="50" relative="1" as="geometry">
            <mxPoint x="-80" y="2500" as="sourcePoint" />
            <mxPoint x="-30" y="2280" as="targetPoint" />
            <Array as="points">
              <mxPoint x="-80" y="2270" />
            </Array>
          </mxGeometry>
        </mxCell>
        <mxCell id="_DGLzaf6c6v-ZmG1vvUs-7" value="" style="endArrow=classic;html=1;rounded=0;" parent="1" edge="1">
          <mxGeometry width="50" height="50" relative="1" as="geometry">
            <mxPoint x="-170" y="2840" as="sourcePoint" />
            <mxPoint x="-40" y="2840" as="targetPoint" />
          </mxGeometry>
        </mxCell>
        <mxCell id="_DGLzaf6c6v-ZmG1vvUs-8" value="Получение заявки на&lt;br&gt;&amp;nbsp;новый заказ" style="edgeLabel;html=1;align=center;verticalAlign=middle;resizable=0;points=[];" parent="_DGLzaf6c6v-ZmG1vvUs-7" vertex="1" connectable="0">
          <mxGeometry x="0.2264" relative="1" as="geometry">
            <mxPoint x="-50" y="-30" as="offset" />
          </mxGeometry>
        </mxCell>
        <mxCell id="_DGLzaf6c6v-ZmG1vvUs-11" value="" style="endArrow=classic;html=1;rounded=0;" parent="1" edge="1">
          <mxGeometry width="50" height="50" relative="1" as="geometry">
            <mxPoint x="170" y="2830" as="sourcePoint" />
            <mxPoint x="290" y="2830" as="targetPoint" />
          </mxGeometry>
        </mxCell>
        <mxCell id="_DGLzaf6c6v-ZmG1vvUs-12" value="публикация новой заявки среди курьеров" style="edgeLabel;html=1;align=center;verticalAlign=middle;resizable=0;points=[];" parent="_DGLzaf6c6v-ZmG1vvUs-11" vertex="1" connectable="0">
          <mxGeometry x="-0.2043" y="2" relative="1" as="geometry">
            <mxPoint x="32" y="-18" as="offset" />
          </mxGeometry>
        </mxCell>
        <mxCell id="_DGLzaf6c6v-ZmG1vvUs-13" value="" style="endArrow=classic;html=1;rounded=0;" parent="1" edge="1">
          <mxGeometry width="50" height="50" relative="1" as="geometry">
            <mxPoint x="-140" y="2879.57" as="sourcePoint" />
            <mxPoint x="-40" y="2879.57" as="targetPoint" />
          </mxGeometry>
        </mxCell>
        <mxCell id="_DGLzaf6c6v-ZmG1vvUs-14" value="Приемка товара со стороны заказчика" style="edgeLabel;html=1;align=center;verticalAlign=middle;resizable=0;points=[];" parent="_DGLzaf6c6v-ZmG1vvUs-13" vertex="1" connectable="0">
          <mxGeometry x="0.3026" y="-1" relative="1" as="geometry">
            <mxPoint x="-115" y="-1" as="offset" />
          </mxGeometry>
        </mxCell>
        <mxCell id="_DGLzaf6c6v-ZmG1vvUs-15" value="" style="endArrow=classic;html=1;rounded=1;entryX=-0.028;entryY=0.675;entryDx=0;entryDy=0;entryPerimeter=0;edgeStyle=orthogonalEdgeStyle;" parent="1" target="_DGLzaf6c6v-ZmG1vvUs-1" edge="1">
          <mxGeometry width="50" height="50" relative="1" as="geometry">
            <mxPoint x="169.57" y="2893" as="sourcePoint" />
            <mxPoint x="249.57" y="2893" as="targetPoint" />
            <Array as="points">
              <mxPoint x="250" y="2893" />
              <mxPoint x="250" y="2991" />
            </Array>
          </mxGeometry>
        </mxCell>
        <mxCell id="_DGLzaf6c6v-ZmG1vvUs-16" value="&amp;nbsp;заполненная заявка клиентом" style="edgeLabel;html=1;align=center;verticalAlign=middle;resizable=0;points=[];" parent="_DGLzaf6c6v-ZmG1vvUs-15" vertex="1" connectable="0">
          <mxGeometry x="0.2696" y="-1" relative="1" as="geometry">
            <mxPoint x="-19" y="-86" as="offset" />
          </mxGeometry>
        </mxCell>
        <mxCell id="_DGLzaf6c6v-ZmG1vvUs-17" value="" style="endArrow=classic;html=1;rounded=1;entryX=-0.023;entryY=0.917;entryDx=0;entryDy=0;entryPerimeter=0;edgeStyle=orthogonalEdgeStyle;" parent="1" target="_DGLzaf6c6v-ZmG1vvUs-1" edge="1">
          <mxGeometry width="50" height="50" relative="1" as="geometry">
            <mxPoint x="170" y="2922" as="sourcePoint" />
            <mxPoint x="270" y="2922" as="targetPoint" />
            <Array as="points">
              <mxPoint x="210" y="2923" />
              <mxPoint x="210" y="3015" />
            </Array>
          </mxGeometry>
        </mxCell>
        <mxCell id="_DGLzaf6c6v-ZmG1vvUs-18" value="документы об оплате" style="edgeLabel;html=1;align=center;verticalAlign=middle;resizable=0;points=[];" parent="_DGLzaf6c6v-ZmG1vvUs-17" vertex="1" connectable="0">
          <mxGeometry x="0.52" y="-1" relative="1" as="geometry">
            <mxPoint x="-26" y="7" as="offset" />
          </mxGeometry>
        </mxCell>
        <mxCell id="_DGLzaf6c6v-ZmG1vvUs-19" value="" style="endArrow=classic;html=1;rounded=1;entryX=0.023;entryY=0.175;entryDx=0;entryDy=0;entryPerimeter=0;edgeStyle=orthogonalEdgeStyle;" parent="1" target="_DGLzaf6c6v-ZmG1vvUs-4" edge="1">
          <mxGeometry width="50" height="50" relative="1" as="geometry">
            <mxPoint x="510" y="2950" as="sourcePoint" />
            <mxPoint x="630" y="2950" as="targetPoint" />
            <Array as="points">
              <mxPoint x="510" y="2951" />
              <mxPoint x="590" y="2951" />
              <mxPoint x="590" y="3020" />
            </Array>
          </mxGeometry>
        </mxCell>
        <mxCell id="_DGLzaf6c6v-ZmG1vvUs-20" value="Внесенная информация" style="edgeLabel;html=1;align=center;verticalAlign=middle;resizable=0;points=[];" parent="_DGLzaf6c6v-ZmG1vvUs-19" vertex="1" connectable="0">
          <mxGeometry x="-0.0386" y="3" relative="1" as="geometry">
            <mxPoint x="-3" y="-16" as="offset" />
          </mxGeometry>
        </mxCell>
        <mxCell id="_DGLzaf6c6v-ZmG1vvUs-22" value="" style="endArrow=classic;html=1;rounded=1;entryX=-0.018;entryY=0.361;entryDx=0;entryDy=0;entryPerimeter=0;edgeStyle=orthogonalEdgeStyle;" parent="1" target="_DGLzaf6c6v-ZmG1vvUs-2" edge="1">
          <mxGeometry width="50" height="50" relative="1" as="geometry">
            <mxPoint x="776.28" y="3013" as="sourcePoint" />
            <mxPoint x="881.28" y="3013" as="targetPoint" />
            <Array as="points">
              <mxPoint x="776" y="3014" />
              <mxPoint x="820" y="3014" />
              <mxPoint x="820" y="2893" />
            </Array>
          </mxGeometry>
        </mxCell>
        <mxCell id="_DGLzaf6c6v-ZmG1vvUs-23" value="заявка" style="edgeLabel;html=1;align=center;verticalAlign=middle;resizable=0;points=[];" parent="_DGLzaf6c6v-ZmG1vvUs-22" vertex="1" connectable="0">
          <mxGeometry x="0.4126" y="-4" relative="1" as="geometry">
            <mxPoint x="-14" y="-17" as="offset" />
          </mxGeometry>
        </mxCell>
        <mxCell id="_DGLzaf6c6v-ZmG1vvUs-24" value="" style="endArrow=classic;html=1;rounded=0;" parent="1" edge="1">
          <mxGeometry width="50" height="50" relative="1" as="geometry">
            <mxPoint x="1050" y="2922" as="sourcePoint" />
            <mxPoint x="1180" y="2922" as="targetPoint" />
          </mxGeometry>
        </mxCell>
        <mxCell id="_DGLzaf6c6v-ZmG1vvUs-25" value="Заявка в работе" style="edgeLabel;html=1;align=center;verticalAlign=middle;resizable=0;points=[];" parent="_DGLzaf6c6v-ZmG1vvUs-24" vertex="1" connectable="0">
          <mxGeometry x="0.4389" y="4" relative="1" as="geometry">
            <mxPoint x="-19" y="-6" as="offset" />
          </mxGeometry>
        </mxCell>
        <mxCell id="_DGLzaf6c6v-ZmG1vvUs-29" value="" style="endArrow=classic;html=1;rounded=0;" parent="1" edge="1">
          <mxGeometry width="50" height="50" relative="1" as="geometry">
            <mxPoint x="1050" y="3170" as="sourcePoint" />
            <mxPoint x="1160" y="3170" as="targetPoint" />
          </mxGeometry>
        </mxCell>
        <mxCell id="_DGLzaf6c6v-ZmG1vvUs-30" value="Анализ результатов" style="edgeLabel;html=1;align=center;verticalAlign=middle;resizable=0;points=[];" parent="_DGLzaf6c6v-ZmG1vvUs-29" vertex="1" connectable="0">
          <mxGeometry x="0.5464" y="-2" relative="1" as="geometry">
            <mxPoint x="-35" y="-12" as="offset" />
          </mxGeometry>
        </mxCell>
        <mxCell id="_DGLzaf6c6v-ZmG1vvUs-31" value="" style="endArrow=classic;html=1;rounded=1;entryX=-0.028;entryY=0.85;entryDx=0;entryDy=0;entryPerimeter=0;edgeStyle=orthogonalEdgeStyle;" parent="1" target="_DGLzaf6c6v-ZmG1vvUs-3" edge="1">
          <mxGeometry width="50" height="50" relative="1" as="geometry">
            <mxPoint x="777.5" y="3080" as="sourcePoint" />
            <mxPoint x="882.5" y="3080" as="targetPoint" />
            <Array as="points">
              <mxPoint x="810" y="3081" />
              <mxPoint x="810" y="3215" />
            </Array>
          </mxGeometry>
        </mxCell>
        <mxCell id="_DGLzaf6c6v-ZmG1vvUs-33" value="Необходимость новой техники" style="edgeLabel;html=1;align=center;verticalAlign=middle;resizable=0;points=[];" parent="_DGLzaf6c6v-ZmG1vvUs-31" vertex="1" connectable="0">
          <mxGeometry x="0.3744" y="3" relative="1" as="geometry">
            <mxPoint x="-30" y="-12" as="offset" />
          </mxGeometry>
        </mxCell>
        <mxCell id="_DGLzaf6c6v-ZmG1vvUs-36" value="" style="endArrow=classic;html=1;rounded=1;entryX=0.023;entryY=0.588;entryDx=0;entryDy=0;entryPerimeter=0;edgeStyle=orthogonalEdgeStyle;" parent="1" target="_DGLzaf6c6v-ZmG1vvUs-4" edge="1">
          <mxGeometry width="50" height="50" relative="1" as="geometry">
            <mxPoint x="510" y="3000" as="sourcePoint" />
            <mxPoint x="610" y="3000" as="targetPoint" />
            <Array as="points">
              <mxPoint x="570" y="3000" />
              <mxPoint x="570" y="3060" />
            </Array>
          </mxGeometry>
        </mxCell>
        <mxCell id="_DGLzaf6c6v-ZmG1vvUs-37" value="товар" style="text;html=1;align=center;verticalAlign=middle;resizable=0;points=[];autosize=1;strokeColor=none;fillColor=none;" parent="1" vertex="1">
          <mxGeometry x="520" y="3010" width="60" height="30" as="geometry" />
        </mxCell>
        <mxCell id="_DGLzaf6c6v-ZmG1vvUs-41" value="" style="endArrow=classic;html=1;rounded=1;edgeStyle=orthogonalEdgeStyle;" parent="1" edge="1">
          <mxGeometry width="50" height="50" relative="1" as="geometry">
            <mxPoint x="776.28" y="3051.08" as="sourcePoint" />
            <mxPoint x="886" y="3180" as="targetPoint" />
            <Array as="points">
              <mxPoint x="840" y="3051" />
              <mxPoint x="840" y="3180" />
            </Array>
          </mxGeometry>
        </mxCell>
        <mxCell id="_DGLzaf6c6v-ZmG1vvUs-42" value="кол-во &lt;br&gt;курьеров на линии" style="edgeLabel;html=1;align=center;verticalAlign=middle;resizable=0;points=[];" parent="_DGLzaf6c6v-ZmG1vvUs-41" vertex="1" connectable="0">
          <mxGeometry x="0.3798" y="-2" relative="1" as="geometry">
            <mxPoint x="2" y="-32" as="offset" />
          </mxGeometry>
        </mxCell>
        <mxCell id="_DGLzaf6c6v-ZmG1vvUs-48" value="" style="endArrow=classic;html=1;rounded=1;entryX=0;entryY=0.75;entryDx=0;entryDy=0;edgeStyle=orthogonalEdgeStyle;" parent="1" target="_DGLzaf6c6v-ZmG1vvUs-4" edge="1">
          <mxGeometry width="50" height="50" relative="1" as="geometry">
            <mxPoint x="1050" y="3211" as="sourcePoint" />
            <mxPoint x="1145" y="3210" as="targetPoint" />
            <Array as="points">
              <mxPoint x="1090" y="3211" />
              <mxPoint x="1090" y="3280" />
              <mxPoint x="550" y="3280" />
              <mxPoint x="550" y="3076" />
            </Array>
          </mxGeometry>
        </mxCell>
        <mxCell id="_DGLzaf6c6v-ZmG1vvUs-49" value="отчет об заказе" style="edgeLabel;html=1;align=center;verticalAlign=middle;resizable=0;points=[];" parent="_DGLzaf6c6v-ZmG1vvUs-48" vertex="1" connectable="0">
          <mxGeometry x="0.5481" relative="1" as="geometry">
            <mxPoint x="250" y="73" as="offset" />
          </mxGeometry>
        </mxCell>
        <mxCell id="_DGLzaf6c6v-ZmG1vvUs-50" value="" style="endArrow=classic;html=1;rounded=0;" parent="1" edge="1">
          <mxGeometry width="50" height="50" relative="1" as="geometry">
            <mxPoint x="40" y="2720" as="sourcePoint" />
            <mxPoint x="40" y="2820" as="targetPoint" />
          </mxGeometry>
        </mxCell>
        <mxCell id="_DGLzaf6c6v-ZmG1vvUs-51" value="" style="endArrow=classic;html=1;rounded=1;edgeStyle=orthogonalEdgeStyle;" parent="1" edge="1">
          <mxGeometry width="50" height="50" relative="1" as="geometry">
            <mxPoint x="40" y="2750" as="sourcePoint" />
            <mxPoint x="430" y="2920" as="targetPoint" />
          </mxGeometry>
        </mxCell>
        <mxCell id="_DGLzaf6c6v-ZmG1vvUs-52" value="" style="endArrow=classic;html=1;rounded=1;edgeStyle=orthogonalEdgeStyle;" parent="1" edge="1">
          <mxGeometry width="50" height="50" relative="1" as="geometry">
            <mxPoint x="40" y="2750" as="sourcePoint" />
            <mxPoint x="700" y="3000" as="targetPoint" />
          </mxGeometry>
        </mxCell>
        <mxCell id="_DGLzaf6c6v-ZmG1vvUs-53" value="" style="endArrow=classic;html=1;rounded=1;entryX=0.446;entryY=-0.019;entryDx=0;entryDy=0;entryPerimeter=0;edgeStyle=orthogonalEdgeStyle;" parent="1" target="_DGLzaf6c6v-ZmG1vvUs-2" edge="1">
          <mxGeometry width="50" height="50" relative="1" as="geometry">
            <mxPoint x="40" y="2750" as="sourcePoint" />
            <mxPoint x="490" y="2700" as="targetPoint" />
          </mxGeometry>
        </mxCell>
        <mxCell id="_DGLzaf6c6v-ZmG1vvUs-54" value="" style="endArrow=classic;html=1;rounded=1;entryX=0.75;entryY=0;entryDx=0;entryDy=0;edgeStyle=orthogonalEdgeStyle;" parent="1" target="_DGLzaf6c6v-ZmG1vvUs-3" edge="1">
          <mxGeometry width="50" height="50" relative="1" as="geometry">
            <mxPoint x="40" y="2750" as="sourcePoint" />
            <mxPoint x="530" y="2900" as="targetPoint" />
            <Array as="points">
              <mxPoint x="40" y="2751" />
              <mxPoint x="850" y="2751" />
              <mxPoint x="850" y="3000" />
              <mxPoint x="1010" y="3000" />
            </Array>
          </mxGeometry>
        </mxCell>
        <mxCell id="_DGLzaf6c6v-ZmG1vvUs-55" value="Менеджеры склада" style="edgeLabel;html=1;align=center;verticalAlign=middle;resizable=0;points=[];" parent="1" vertex="1" connectable="0">
          <mxGeometry x="40" y="2710" as="geometry" />
        </mxCell>
        <mxCell id="_DGLzaf6c6v-ZmG1vvUs-56" value="" style="endArrow=classic;html=1;rounded=0;entryX=0.5;entryY=1;entryDx=0;entryDy=0;" parent="1" target="ilv5U9q2xcaSZ4rNsWVt-73" edge="1">
          <mxGeometry width="50" height="50" relative="1" as="geometry">
            <mxPoint x="65" y="3370" as="sourcePoint" />
            <mxPoint x="220" y="3170" as="targetPoint" />
          </mxGeometry>
        </mxCell>
        <mxCell id="_DGLzaf6c6v-ZmG1vvUs-57" value="" style="endArrow=classic;html=1;rounded=1;entryX=0.45;entryY=1;entryDx=0;entryDy=0;entryPerimeter=0;edgeStyle=orthogonalEdgeStyle;" parent="1" target="_DGLzaf6c6v-ZmG1vvUs-1" edge="1">
          <mxGeometry width="50" height="50" relative="1" as="geometry">
            <mxPoint x="70" y="3350" as="sourcePoint" />
            <mxPoint x="200" y="3210" as="targetPoint" />
          </mxGeometry>
        </mxCell>
        <mxCell id="_DGLzaf6c6v-ZmG1vvUs-58" value="" style="endArrow=classic;html=1;rounded=1;entryX=0.5;entryY=1;entryDx=0;entryDy=0;edgeStyle=orthogonalEdgeStyle;" parent="1" target="_DGLzaf6c6v-ZmG1vvUs-4" edge="1">
          <mxGeometry width="50" height="50" relative="1" as="geometry">
            <mxPoint x="70" y="3350" as="sourcePoint" />
            <mxPoint x="550" y="3020" as="targetPoint" />
          </mxGeometry>
        </mxCell>
        <mxCell id="_DGLzaf6c6v-ZmG1vvUs-59" value="" style="endArrow=classic;html=1;rounded=1;entryX=0.5;entryY=1;entryDx=0;entryDy=0;edgeStyle=orthogonalEdgeStyle;" parent="1" target="_DGLzaf6c6v-ZmG1vvUs-3" edge="1">
          <mxGeometry width="50" height="50" relative="1" as="geometry">
            <mxPoint x="70" y="3350" as="sourcePoint" />
            <mxPoint x="550" y="3020" as="targetPoint" />
          </mxGeometry>
        </mxCell>
        <mxCell id="_DGLzaf6c6v-ZmG1vvUs-60" value="" style="endArrow=classic;html=1;rounded=1;entryX=0.25;entryY=1;entryDx=0;entryDy=0;edgeStyle=orthogonalEdgeStyle;" parent="1" target="_DGLzaf6c6v-ZmG1vvUs-2" edge="1">
          <mxGeometry width="50" height="50" relative="1" as="geometry">
            <mxPoint x="80" y="3350" as="sourcePoint" />
            <mxPoint x="650" y="3020" as="targetPoint" />
            <Array as="points">
              <mxPoint x="80" y="3351" />
              <mxPoint x="860" y="3351" />
              <mxPoint x="860" y="3010" />
              <mxPoint x="930" y="3010" />
            </Array>
          </mxGeometry>
        </mxCell>
        <mxCell id="_DGLzaf6c6v-ZmG1vvUs-62" value="Курьеры службы" style="edgeLabel;html=1;align=center;verticalAlign=middle;resizable=0;points=[];" parent="1" vertex="1" connectable="0">
          <mxGeometry x="140" y="3380" as="geometry">
            <mxPoint x="18" y="-4" as="offset" />
          </mxGeometry>
        </mxCell>
        <mxCell id="_DGLzaf6c6v-ZmG1vvUs-63" value="A0" style="text;html=1;strokeColor=none;fillColor=none;align=center;verticalAlign=middle;whiteSpace=wrap;rounded=0;" parent="1" vertex="1">
          <mxGeometry x="1000" y="1165" width="60" height="30" as="geometry" />
        </mxCell>
        <mxCell id="_DGLzaf6c6v-ZmG1vvUs-64" value="A1" style="text;html=1;strokeColor=none;fillColor=none;align=center;verticalAlign=middle;whiteSpace=wrap;rounded=0;" parent="1" vertex="1">
          <mxGeometry x="240" y="1530" width="60" height="30" as="geometry" />
        </mxCell>
        <mxCell id="_DGLzaf6c6v-ZmG1vvUs-65" value="A2" style="text;html=1;strokeColor=none;fillColor=none;align=center;verticalAlign=middle;whiteSpace=wrap;rounded=0;" parent="1" vertex="1">
          <mxGeometry x="630" y="1684" width="60" height="30" as="geometry" />
        </mxCell>
        <mxCell id="_DGLzaf6c6v-ZmG1vvUs-66" value="A1.1" style="text;html=1;strokeColor=none;fillColor=none;align=center;verticalAlign=middle;whiteSpace=wrap;rounded=0;" parent="1" vertex="1">
          <mxGeometry x="-30" y="2200" width="60" height="30" as="geometry" />
        </mxCell>
        <mxCell id="_DGLzaf6c6v-ZmG1vvUs-67" value="A1.2" style="text;html=1;strokeColor=none;fillColor=none;align=center;verticalAlign=middle;whiteSpace=wrap;rounded=0;" parent="1" vertex="1">
          <mxGeometry x="270" y="2320" width="60" height="30" as="geometry" />
        </mxCell>
        <mxCell id="_DGLzaf6c6v-ZmG1vvUs-68" value="A1.3" style="text;html=1;strokeColor=none;fillColor=none;align=center;verticalAlign=middle;whiteSpace=wrap;rounded=0;" parent="1" vertex="1">
          <mxGeometry x="610" y="2440" width="60" height="30" as="geometry" />
        </mxCell>
        <mxCell id="_DGLzaf6c6v-ZmG1vvUs-69" value="A1.1.1" style="text;html=1;strokeColor=none;fillColor=none;align=center;verticalAlign=middle;whiteSpace=wrap;rounded=0;" parent="1" vertex="1">
          <mxGeometry x="120" y="2910" width="60" height="30" as="geometry" />
        </mxCell>
        <mxCell id="_DGLzaf6c6v-ZmG1vvUs-70" value="A1.1.2" style="text;html=1;strokeColor=none;fillColor=none;align=center;verticalAlign=middle;whiteSpace=wrap;rounded=0;" parent="1" vertex="1">
          <mxGeometry x="460" y="2993" width="60" height="30" as="geometry" />
        </mxCell>
        <mxCell id="_DGLzaf6c6v-ZmG1vvUs-71" value="A1.1.3" style="text;html=1;strokeColor=none;fillColor=none;align=center;verticalAlign=middle;whiteSpace=wrap;rounded=0;" parent="1" vertex="1">
          <mxGeometry x="720" y="3070" width="60" height="30" as="geometry" />
        </mxCell>
        <mxCell id="_DGLzaf6c6v-ZmG1vvUs-72" value="A1.1.5" style="text;html=1;strokeColor=none;fillColor=none;align=center;verticalAlign=middle;whiteSpace=wrap;rounded=0;" parent="1" vertex="1">
          <mxGeometry x="990" y="3200" width="60" height="30" as="geometry" />
        </mxCell>
        <mxCell id="_DGLzaf6c6v-ZmG1vvUs-73" value="A1.1.4" style="text;html=1;strokeColor=none;fillColor=none;align=center;verticalAlign=middle;whiteSpace=wrap;rounded=0;" parent="1" vertex="1">
          <mxGeometry x="1000" y="2923" width="60" height="30" as="geometry" />
        </mxCell>
        <mxCell id="_DGLzaf6c6v-ZmG1vvUs-74" value="Заявка получена" style="shape=hexagon;perimeter=hexagonPerimeter2;whiteSpace=wrap;html=1;fixedSize=1;fillColor=#FF99FF;" parent="1" vertex="1">
          <mxGeometry x="747.5" y="3820" width="200" height="80" as="geometry" />
        </mxCell>
        <mxCell id="_DGLzaf6c6v-ZmG1vvUs-75" value="Курьер не принял заявку" style="shape=hexagon;perimeter=hexagonPerimeter2;whiteSpace=wrap;html=1;fixedSize=1;fillColor=#FF99FF;" parent="1" vertex="1">
          <mxGeometry x="920.5000000000001" y="4770" width="190" height="80" as="geometry" />
        </mxCell>
        <mxCell id="_DGLzaf6c6v-ZmG1vvUs-76" value="Менеджеры по работе с клиентами" style="ellipse;whiteSpace=wrap;html=1;fillColor=#ffff88;strokeColor=#36393d;" parent="1" vertex="1">
          <mxGeometry x="410" y="3955" width="210" height="100" as="geometry" />
        </mxCell>
        <mxCell id="_DGLzaf6c6v-ZmG1vvUs-78" value="" style="endArrow=none;html=1;rounded=0;entryX=0;entryY=0;entryDx=0;entryDy=0;exitX=0;exitY=1;exitDx=0;exitDy=0;" parent="1" source="_DGLzaf6c6v-ZmG1vvUs-76" target="_DGLzaf6c6v-ZmG1vvUs-76" edge="1">
          <mxGeometry width="50" height="50" relative="1" as="geometry">
            <mxPoint x="410" y="4105" as="sourcePoint" />
            <mxPoint x="460" y="4055" as="targetPoint" />
          </mxGeometry>
        </mxCell>
        <mxCell id="_DGLzaf6c6v-ZmG1vvUs-79" value="Подготовка и размещение заявки среди курьеров" style="rounded=1;whiteSpace=wrap;html=1;fillColor=#66FF40;strokeColor=#36393d;" parent="1" vertex="1">
          <mxGeometry x="772" y="3960" width="155" height="90" as="geometry" />
        </mxCell>
        <mxCell id="_DGLzaf6c6v-ZmG1vvUs-80" value="Заявка учтена" style="shape=hexagon;perimeter=hexagonPerimeter2;whiteSpace=wrap;html=1;fixedSize=1;fillColor=#FF99FF;" parent="1" vertex="1">
          <mxGeometry x="754.5" y="4120" width="190" height="80" as="geometry" />
        </mxCell>
        <mxCell id="_DGLzaf6c6v-ZmG1vvUs-81" value="" style="rounded=1;whiteSpace=wrap;html=1;fillColor=#66FF40;strokeColor=#36393d;" parent="1" vertex="1">
          <mxGeometry x="-662.5" y="4370" width="155" height="90" as="geometry" />
        </mxCell>
        <mxCell id="_DGLzaf6c6v-ZmG1vvUs-83" value="" style="ellipse;whiteSpace=wrap;html=1;fillColor=#ffff88;strokeColor=#36393d;" parent="1" vertex="1">
          <mxGeometry x="-680" y="4490" width="180" height="100" as="geometry" />
        </mxCell>
        <mxCell id="_DGLzaf6c6v-ZmG1vvUs-84" value="" style="endArrow=none;html=1;rounded=0;entryX=0;entryY=0;entryDx=0;entryDy=0;exitX=0;exitY=1;exitDx=0;exitDy=0;" parent="1" source="_DGLzaf6c6v-ZmG1vvUs-83" target="_DGLzaf6c6v-ZmG1vvUs-83" edge="1">
          <mxGeometry width="50" height="50" relative="1" as="geometry">
            <mxPoint x="-375" y="4645" as="sourcePoint" />
            <mxPoint x="-325" y="4595" as="targetPoint" />
          </mxGeometry>
        </mxCell>
        <mxCell id="_DGLzaf6c6v-ZmG1vvUs-85" value="Отбор и сортировка заявок" style="rounded=1;whiteSpace=wrap;html=1;fillColor=#66FF40;strokeColor=#36393d;" parent="1" vertex="1">
          <mxGeometry x="770" y="4250" width="155" height="90" as="geometry" />
        </mxCell>
        <mxCell id="_DGLzaf6c6v-ZmG1vvUs-91" value="" style="endArrow=classic;html=1;rounded=1;entryX=-0.019;entryY=0.126;entryDx=0;entryDy=0;entryPerimeter=0;edgeStyle=orthogonalEdgeStyle;" parent="1" target="_DGLzaf6c6v-ZmG1vvUs-1" edge="1">
          <mxGeometry width="50" height="50" relative="1" as="geometry">
            <mxPoint x="175" y="2850" as="sourcePoint" />
            <mxPoint x="365" y="2850" as="targetPoint" />
            <Array as="points">
              <mxPoint x="330" y="2850" />
              <mxPoint x="330" y="2936" />
            </Array>
          </mxGeometry>
        </mxCell>
        <mxCell id="_DGLzaf6c6v-ZmG1vvUs-92" value="рассмотренная заявка" style="edgeLabel;html=1;align=center;verticalAlign=middle;resizable=0;points=[];" parent="_DGLzaf6c6v-ZmG1vvUs-91" vertex="1" connectable="0">
          <mxGeometry x="-0.1205" y="-3" relative="1" as="geometry">
            <mxPoint x="-18" y="-3" as="offset" />
          </mxGeometry>
        </mxCell>
        <mxCell id="_DGLzaf6c6v-ZmG1vvUs-94" value="" style="endArrow=classic;html=1;rounded=0;entryX=0;entryY=0.25;entryDx=0;entryDy=0;edgeStyle=orthogonalEdgeStyle;" parent="1" target="_DGLzaf6c6v-ZmG1vvUs-85" edge="1">
          <mxGeometry width="50" height="50" relative="1" as="geometry">
            <mxPoint x="595" y="4239.41" as="sourcePoint" />
            <mxPoint x="745" y="4239.41" as="targetPoint" />
          </mxGeometry>
        </mxCell>
        <mxCell id="_DGLzaf6c6v-ZmG1vvUs-99" value="Создание заявки" style="shape=hexagon;perimeter=hexagonPerimeter2;whiteSpace=wrap;html=1;fixedSize=1;fillColor=#FF99FF;" parent="1" vertex="1">
          <mxGeometry x="752.5" y="4380" width="190" height="80" as="geometry" />
        </mxCell>
        <mxCell id="_DGLzaf6c6v-ZmG1vvUs-106" value="&lt;font color=&quot;#000000&quot;&gt;Шаблон документа&lt;/font&gt;" style="shape=card;whiteSpace=wrap;html=1;fillColor=#88A0B8;fontColor=#ffffff;strokeColor=#314354;" parent="1" vertex="1">
          <mxGeometry x="1050" y="3870" width="160" height="100" as="geometry" />
        </mxCell>
        <mxCell id="_DGLzaf6c6v-ZmG1vvUs-108" value="" style="shape=card;whiteSpace=wrap;html=1;fillColor=#88A0B8;fontColor=#ffffff;strokeColor=#314354;" parent="1" vertex="1">
          <mxGeometry x="-667.5" y="4250" width="160" height="100" as="geometry" />
        </mxCell>
        <mxCell id="_DGLzaf6c6v-ZmG1vvUs-109" value="&lt;font color=&quot;#000000&quot;&gt;Список потенциальных оптимальных маршрутов&lt;/font&gt;" style="shape=card;whiteSpace=wrap;html=1;fillColor=#88A0B8;fontColor=#ffffff;strokeColor=#314354;" parent="1" vertex="1">
          <mxGeometry x="1020" y="4330" width="160" height="100" as="geometry" />
        </mxCell>
        <mxCell id="_DGLzaf6c6v-ZmG1vvUs-114" value="Менеджеры по работе с клиентами" style="ellipse;whiteSpace=wrap;html=1;fillColor=#ffff88;strokeColor=#36393d;" parent="1" vertex="1">
          <mxGeometry x="414" y="4185" width="180" height="100" as="geometry" />
        </mxCell>
        <mxCell id="_DGLzaf6c6v-ZmG1vvUs-115" value="" style="endArrow=none;html=1;rounded=0;entryX=0;entryY=0;entryDx=0;entryDy=0;exitX=0;exitY=1;exitDx=0;exitDy=0;" parent="1" source="_DGLzaf6c6v-ZmG1vvUs-114" target="_DGLzaf6c6v-ZmG1vvUs-114" edge="1">
          <mxGeometry width="50" height="50" relative="1" as="geometry">
            <mxPoint x="384" y="4350" as="sourcePoint" />
            <mxPoint x="434" y="4300" as="targetPoint" />
          </mxGeometry>
        </mxCell>
        <mxCell id="_DGLzaf6c6v-ZmG1vvUs-118" value="Выполняет" style="edgeLabel;html=1;align=center;verticalAlign=middle;resizable=0;points=[];" parent="1" vertex="1" connectable="0">
          <mxGeometry x="650.303762414338" y="4224.8139052365295" as="geometry" />
        </mxCell>
        <mxCell id="_DGLzaf6c6v-ZmG1vvUs-124" value="Передача заявки курьеру" style="rounded=1;whiteSpace=wrap;html=1;fillColor=#66FF40;strokeColor=#36393d;" parent="1" vertex="1">
          <mxGeometry x="768" y="4520" width="155" height="90" as="geometry" />
        </mxCell>
        <mxCell id="_DGLzaf6c6v-ZmG1vvUs-126" value="Оформление завершено" style="shape=hexagon;perimeter=hexagonPerimeter2;whiteSpace=wrap;html=1;fixedSize=1;fillColor=#FF99FF;" parent="1" vertex="1">
          <mxGeometry x="540.5" y="5030" width="190" height="80" as="geometry" />
        </mxCell>
        <mxCell id="_DGLzaf6c6v-ZmG1vvUs-132" value="" style="endArrow=classic;html=1;rounded=0;" parent="1" edge="1">
          <mxGeometry width="50" height="50" relative="1" as="geometry">
            <mxPoint x="846.91" y="3900" as="sourcePoint" />
            <mxPoint x="847" y="3960" as="targetPoint" />
          </mxGeometry>
        </mxCell>
        <mxCell id="_DGLzaf6c6v-ZmG1vvUs-133" value="" style="endArrow=classic;html=1;rounded=0;entryX=0.5;entryY=0;entryDx=0;entryDy=0;exitX=0.5;exitY=1;exitDx=0;exitDy=0;" parent="1" source="xIVhRgSLY87ZJ8C9RX9J-8" target="_DGLzaf6c6v-ZmG1vvUs-80" edge="1">
          <mxGeometry width="50" height="50" relative="1" as="geometry">
            <mxPoint x="840" y="4100" as="sourcePoint" />
            <mxPoint x="890" y="4060" as="targetPoint" />
          </mxGeometry>
        </mxCell>
        <mxCell id="_DGLzaf6c6v-ZmG1vvUs-134" value="" style="endArrow=classic;html=1;rounded=0;entryX=0.513;entryY=0;entryDx=0;entryDy=0;entryPerimeter=0;exitX=0.5;exitY=1;exitDx=0;exitDy=0;" parent="1" source="_DGLzaf6c6v-ZmG1vvUs-80" target="_DGLzaf6c6v-ZmG1vvUs-85" edge="1">
          <mxGeometry width="50" height="50" relative="1" as="geometry">
            <mxPoint x="840" y="4230" as="sourcePoint" />
            <mxPoint x="890" y="4180" as="targetPoint" />
          </mxGeometry>
        </mxCell>
        <mxCell id="_DGLzaf6c6v-ZmG1vvUs-135" value="" style="endArrow=classic;html=1;rounded=0;" parent="1" edge="1">
          <mxGeometry width="50" height="50" relative="1" as="geometry">
            <mxPoint x="849.41" y="4340" as="sourcePoint" />
            <mxPoint x="849.5" y="4385" as="targetPoint" />
          </mxGeometry>
        </mxCell>
        <mxCell id="_DGLzaf6c6v-ZmG1vvUs-136" value="" style="endArrow=classic;html=1;rounded=0;" parent="1" edge="1">
          <mxGeometry width="50" height="50" relative="1" as="geometry">
            <mxPoint x="846.91" y="4470" as="sourcePoint" />
            <mxPoint x="847" y="4520" as="targetPoint" />
          </mxGeometry>
        </mxCell>
        <mxCell id="_DGLzaf6c6v-ZmG1vvUs-141" value="XOR" style="ellipse;whiteSpace=wrap;html=1;aspect=fixed;fillColor=#ababab;" parent="1" vertex="1">
          <mxGeometry x="825.5" y="4660" width="40" height="40" as="geometry" />
        </mxCell>
        <mxCell id="_DGLzaf6c6v-ZmG1vvUs-142" value="" style="endArrow=classic;html=1;rounded=0;exitX=0.5;exitY=1;exitDx=0;exitDy=0;entryX=0.5;entryY=0;entryDx=0;entryDy=0;" parent="1" source="_DGLzaf6c6v-ZmG1vvUs-124" target="_DGLzaf6c6v-ZmG1vvUs-141" edge="1">
          <mxGeometry width="50" height="50" relative="1" as="geometry">
            <mxPoint x="835.5" y="4890" as="sourcePoint" />
            <mxPoint x="885.5000000000001" y="4840" as="targetPoint" />
          </mxGeometry>
        </mxCell>
        <mxCell id="_DGLzaf6c6v-ZmG1vvUs-143" value="" style="endArrow=classic;html=1;rounded=0;exitX=0;exitY=0.5;exitDx=0;exitDy=0;edgeStyle=orthogonalEdgeStyle;" parent="1" source="_DGLzaf6c6v-ZmG1vvUs-141" edge="1">
          <mxGeometry width="50" height="50" relative="1" as="geometry">
            <mxPoint x="743" y="4800" as="sourcePoint" />
            <mxPoint x="635.5" y="4760" as="targetPoint" />
          </mxGeometry>
        </mxCell>
        <mxCell id="_DGLzaf6c6v-ZmG1vvUs-144" value="" style="endArrow=classic;html=1;rounded=0;entryX=0.5;entryY=0;entryDx=0;entryDy=0;exitX=1;exitY=0.5;exitDx=0;exitDy=0;edgeStyle=orthogonalEdgeStyle;" parent="1" source="_DGLzaf6c6v-ZmG1vvUs-141" target="_DGLzaf6c6v-ZmG1vvUs-75" edge="1">
          <mxGeometry width="50" height="50" relative="1" as="geometry">
            <mxPoint x="835.5" y="4840" as="sourcePoint" />
            <mxPoint x="885.5000000000001" y="4790" as="targetPoint" />
          </mxGeometry>
        </mxCell>
        <mxCell id="_DGLzaf6c6v-ZmG1vvUs-149" value="" style="endArrow=classic;html=1;rounded=0;entryX=1;entryY=0.5;entryDx=0;entryDy=0;exitX=-0.03;exitY=0.562;exitDx=0;exitDy=0;exitPerimeter=0;" parent="1" source="_DGLzaf6c6v-ZmG1vvUs-106" target="_DGLzaf6c6v-ZmG1vvUs-79" edge="1">
          <mxGeometry width="50" height="50" relative="1" as="geometry">
            <mxPoint x="840" y="4130" as="sourcePoint" />
            <mxPoint x="890" y="4080" as="targetPoint" />
          </mxGeometry>
        </mxCell>
        <mxCell id="_DGLzaf6c6v-ZmG1vvUs-150" value="" style="endArrow=classic;html=1;rounded=0;entryX=0;entryY=0.5;entryDx=0;entryDy=0;exitX=1;exitY=0.5;exitDx=0;exitDy=0;" parent="1" source="_DGLzaf6c6v-ZmG1vvUs-76" target="_DGLzaf6c6v-ZmG1vvUs-79" edge="1">
          <mxGeometry width="50" height="50" relative="1" as="geometry">
            <mxPoint x="840" y="4130" as="sourcePoint" />
            <mxPoint x="890" y="4080" as="targetPoint" />
          </mxGeometry>
        </mxCell>
        <mxCell id="_DGLzaf6c6v-ZmG1vvUs-151" value="Выполняет" style="edgeLabel;html=1;align=center;verticalAlign=middle;resizable=0;points=[];" parent="_DGLzaf6c6v-ZmG1vvUs-150" vertex="1" connectable="0">
          <mxGeometry x="-0.1811" relative="1" as="geometry">
            <mxPoint as="offset" />
          </mxGeometry>
        </mxCell>
        <mxCell id="_DGLzaf6c6v-ZmG1vvUs-154" value="" style="endArrow=classic;html=1;rounded=0;entryX=-0.023;entryY=0.562;entryDx=0;entryDy=0;entryPerimeter=0;exitX=0.997;exitY=0.612;exitDx=0;exitDy=0;exitPerimeter=0;edgeStyle=orthogonalEdgeStyle;" parent="1" source="_DGLzaf6c6v-ZmG1vvUs-85" target="_DGLzaf6c6v-ZmG1vvUs-109" edge="1">
          <mxGeometry width="50" height="50" relative="1" as="geometry">
            <mxPoint x="940" y="4335" as="sourcePoint" />
            <mxPoint x="990" y="4285" as="targetPoint" />
          </mxGeometry>
        </mxCell>
        <mxCell id="_DGLzaf6c6v-ZmG1vvUs-155" value="" style="shape=hexagon;perimeter=hexagonPerimeter2;whiteSpace=wrap;html=1;fixedSize=1;fillColor=#FF99FF;" parent="1" vertex="1">
          <mxGeometry x="-680" y="4150" width="190" height="80" as="geometry" />
        </mxCell>
        <mxCell id="_DGLzaf6c6v-ZmG1vvUs-158" value="Оформление заявки" style="rounded=1;whiteSpace=wrap;html=1;fillColor=#66FF40;strokeColor=#36393d;" parent="1" vertex="1">
          <mxGeometry x="558" y="4890" width="155" height="90" as="geometry" />
        </mxCell>
        <mxCell id="_DGLzaf6c6v-ZmG1vvUs-159" value="Курьер принял заявку" style="shape=hexagon;perimeter=hexagonPerimeter2;whiteSpace=wrap;html=1;fixedSize=1;fillColor=#FF99FF;" parent="1" vertex="1">
          <mxGeometry x="545.5" y="4770" width="190" height="80" as="geometry" />
        </mxCell>
        <mxCell id="_DGLzaf6c6v-ZmG1vvUs-161" value="" style="endArrow=classic;html=1;rounded=0;" parent="1" edge="1">
          <mxGeometry width="50" height="50" relative="1" as="geometry">
            <mxPoint x="635.05" y="4850" as="sourcePoint" />
            <mxPoint x="635.5" y="4890" as="targetPoint" />
          </mxGeometry>
        </mxCell>
        <mxCell id="_DGLzaf6c6v-ZmG1vvUs-162" value="" style="endArrow=classic;html=1;rounded=0;" parent="1" edge="1">
          <mxGeometry width="50" height="50" relative="1" as="geometry">
            <mxPoint x="634.5899999999999" y="4980" as="sourcePoint" />
            <mxPoint x="635.5" y="5030" as="targetPoint" />
          </mxGeometry>
        </mxCell>
        <mxCell id="_DGLzaf6c6v-ZmG1vvUs-164" value="Менеджеры по работе с клиентами" style="ellipse;whiteSpace=wrap;html=1;fillColor=#ffff88;strokeColor=#36393d;" parent="1" vertex="1">
          <mxGeometry x="419.5" y="4520" width="180" height="100" as="geometry" />
        </mxCell>
        <mxCell id="_DGLzaf6c6v-ZmG1vvUs-165" value="" style="endArrow=none;html=1;rounded=0;entryX=0;entryY=0;entryDx=0;entryDy=0;exitX=0;exitY=1;exitDx=0;exitDy=0;" parent="1" source="_DGLzaf6c6v-ZmG1vvUs-164" target="_DGLzaf6c6v-ZmG1vvUs-164" edge="1">
          <mxGeometry width="50" height="50" relative="1" as="geometry">
            <mxPoint x="389.5" y="4685" as="sourcePoint" />
            <mxPoint x="439.5" y="4635" as="targetPoint" />
          </mxGeometry>
        </mxCell>
        <mxCell id="_DGLzaf6c6v-ZmG1vvUs-166" value="выполняет" style="text;html=1;strokeColor=none;fillColor=none;align=center;verticalAlign=middle;whiteSpace=wrap;rounded=0;" parent="1" vertex="1">
          <mxGeometry x="615.5" y="4540" width="60" height="30" as="geometry" />
        </mxCell>
        <mxCell id="_DGLzaf6c6v-ZmG1vvUs-167" value="" style="endArrow=classic;html=1;rounded=0;exitX=1;exitY=0.5;exitDx=0;exitDy=0;" parent="1" source="_DGLzaf6c6v-ZmG1vvUs-164" edge="1">
          <mxGeometry width="50" height="50" relative="1" as="geometry">
            <mxPoint x="615.5" y="4690" as="sourcePoint" />
            <mxPoint x="765.5" y="4570" as="targetPoint" />
          </mxGeometry>
        </mxCell>
        <mxCell id="_DGLzaf6c6v-ZmG1vvUs-169" value="Менеджеры по работе с клиентами" style="ellipse;whiteSpace=wrap;html=1;fillColor=#ffff88;strokeColor=#36393d;" parent="1" vertex="1">
          <mxGeometry x="229.5" y="4885" width="180" height="100" as="geometry" />
        </mxCell>
        <mxCell id="_DGLzaf6c6v-ZmG1vvUs-170" value="" style="endArrow=none;html=1;rounded=0;entryX=0;entryY=0;entryDx=0;entryDy=0;exitX=0;exitY=1;exitDx=0;exitDy=0;" parent="1" source="_DGLzaf6c6v-ZmG1vvUs-169" target="_DGLzaf6c6v-ZmG1vvUs-169" edge="1">
          <mxGeometry width="50" height="50" relative="1" as="geometry">
            <mxPoint x="521.5" y="5040" as="sourcePoint" />
            <mxPoint x="571.5" y="4990" as="targetPoint" />
          </mxGeometry>
        </mxCell>
        <mxCell id="_DGLzaf6c6v-ZmG1vvUs-171" value="" style="endArrow=classic;html=1;rounded=0;exitX=1;exitY=0.5;exitDx=0;exitDy=0;" parent="1" source="_DGLzaf6c6v-ZmG1vvUs-169" edge="1">
          <mxGeometry width="50" height="50" relative="1" as="geometry">
            <mxPoint x="395.5" y="4945" as="sourcePoint" />
            <mxPoint x="555.5" y="4930" as="targetPoint" />
          </mxGeometry>
        </mxCell>
        <mxCell id="_DGLzaf6c6v-ZmG1vvUs-172" value="Выполняет" style="edgeLabel;html=1;align=center;verticalAlign=middle;resizable=0;points=[];" parent="_DGLzaf6c6v-ZmG1vvUs-171" vertex="1" connectable="0">
          <mxGeometry x="-0.1904" y="3" relative="1" as="geometry">
            <mxPoint x="-3" y="-10" as="offset" />
          </mxGeometry>
        </mxCell>
        <mxCell id="_DGLzaf6c6v-ZmG1vvUs-177" value="Поступление заявки" style="shape=hexagon;perimeter=hexagonPerimeter2;whiteSpace=wrap;html=1;fixedSize=1;fillColor=#FF99FF;" parent="1" vertex="1">
          <mxGeometry x="2163.5" y="3860" width="200" height="80" as="geometry" />
        </mxCell>
        <mxCell id="_DGLzaf6c6v-ZmG1vvUs-178" value="Заявка не принята" style="shape=hexagon;perimeter=hexagonPerimeter2;whiteSpace=wrap;html=1;fixedSize=1;fillColor=#FF99FF;" parent="1" vertex="1">
          <mxGeometry x="2340" y="5250" width="190" height="80" as="geometry" />
        </mxCell>
        <mxCell id="_DGLzaf6c6v-ZmG1vvUs-179" value="Система управления заявками курьерской службы" style="ellipse;whiteSpace=wrap;html=1;fillColor=#ffff88;strokeColor=#36393d;" parent="1" vertex="1">
          <mxGeometry x="1856" y="3995" width="180" height="100" as="geometry" />
        </mxCell>
        <mxCell id="_DGLzaf6c6v-ZmG1vvUs-180" value="" style="endArrow=none;html=1;rounded=0;entryX=0;entryY=0;entryDx=0;entryDy=0;exitX=0;exitY=1;exitDx=0;exitDy=0;" parent="1" source="_DGLzaf6c6v-ZmG1vvUs-179" target="_DGLzaf6c6v-ZmG1vvUs-179" edge="1">
          <mxGeometry width="50" height="50" relative="1" as="geometry">
            <mxPoint x="1826" y="4145" as="sourcePoint" />
            <mxPoint x="1876" y="4095" as="targetPoint" />
          </mxGeometry>
        </mxCell>
        <mxCell id="_DGLzaf6c6v-ZmG1vvUs-181" value="Автоматическое размещение в онлайн-режиме заявки" style="rounded=1;whiteSpace=wrap;html=1;fillColor=#66FF40;strokeColor=#36393d;" parent="1" vertex="1">
          <mxGeometry x="2188" y="4000" width="155" height="90" as="geometry" />
        </mxCell>
        <mxCell id="_DGLzaf6c6v-ZmG1vvUs-182" value="Поступления заявок" style="shape=hexagon;perimeter=hexagonPerimeter2;whiteSpace=wrap;html=1;fixedSize=1;fillColor=#FF99FF;" parent="1" vertex="1">
          <mxGeometry x="2170.5" y="4160" width="190" height="80" as="geometry" />
        </mxCell>
        <mxCell id="_DGLzaf6c6v-ZmG1vvUs-183" value="Автоматический отбор заявок на новый заказ" style="rounded=1;whiteSpace=wrap;html=1;fillColor=#66FF40;strokeColor=#36393d;" parent="1" vertex="1">
          <mxGeometry x="2186" y="4290" width="155" height="90" as="geometry" />
        </mxCell>
        <mxCell id="_DGLzaf6c6v-ZmG1vvUs-184" value="Система управления заявками курьерской службы" style="ellipse;whiteSpace=wrap;html=1;fillColor=#ffff88;strokeColor=#36393d;" parent="1" vertex="1">
          <mxGeometry x="1822" y="4510" width="180" height="100" as="geometry" />
        </mxCell>
        <mxCell id="_DGLzaf6c6v-ZmG1vvUs-185" value="" style="endArrow=none;html=1;rounded=0;entryX=0;entryY=0;entryDx=0;entryDy=0;exitX=0;exitY=1;exitDx=0;exitDy=0;" parent="1" source="_DGLzaf6c6v-ZmG1vvUs-184" target="_DGLzaf6c6v-ZmG1vvUs-184" edge="1">
          <mxGeometry width="50" height="50" relative="1" as="geometry">
            <mxPoint x="1792" y="4675" as="sourcePoint" />
            <mxPoint x="1842" y="4625" as="targetPoint" />
          </mxGeometry>
        </mxCell>
        <mxCell id="_DGLzaf6c6v-ZmG1vvUs-186" value="" style="endArrow=classic;html=1;rounded=0;entryX=0;entryY=0.25;entryDx=0;entryDy=0;edgeStyle=orthogonalEdgeStyle;" parent="1" target="_DGLzaf6c6v-ZmG1vvUs-183" edge="1">
          <mxGeometry width="50" height="50" relative="1" as="geometry">
            <mxPoint x="2011" y="4279.41" as="sourcePoint" />
            <mxPoint x="2161" y="4279.41" as="targetPoint" />
          </mxGeometry>
        </mxCell>
        <mxCell id="_DGLzaf6c6v-ZmG1vvUs-187" value="Выполняет" style="edgeLabel;html=1;align=center;verticalAlign=middle;resizable=0;points=[];" parent="_DGLzaf6c6v-ZmG1vvUs-186" vertex="1" connectable="0">
          <mxGeometry x="-0.273" y="2" relative="1" as="geometry">
            <mxPoint x="-28" y="272" as="offset" />
          </mxGeometry>
        </mxCell>
        <mxCell id="_DGLzaf6c6v-ZmG1vvUs-190" value="Создание заявки" style="shape=hexagon;perimeter=hexagonPerimeter2;whiteSpace=wrap;html=1;fixedSize=1;fillColor=#FF99FF;" parent="1" vertex="1">
          <mxGeometry x="2168.5" y="4430" width="190" height="80" as="geometry" />
        </mxCell>
        <mxCell id="_DGLzaf6c6v-ZmG1vvUs-197" value="&lt;font color=&quot;#000000&quot;&gt;Шаблон документа&lt;/font&gt;" style="shape=card;whiteSpace=wrap;html=1;fillColor=#88A0B8;fontColor=#ffffff;strokeColor=#314354;" parent="1" vertex="1">
          <mxGeometry x="2436" y="3990" width="160" height="100" as="geometry" />
        </mxCell>
        <mxCell id="_DGLzaf6c6v-ZmG1vvUs-198" value="&lt;font color=&quot;#000000&quot;&gt;Список потенциальных оптимальных маршрутов&lt;/font&gt;" style="shape=card;whiteSpace=wrap;html=1;fillColor=#88A0B8;fontColor=#ffffff;strokeColor=#314354;" parent="1" vertex="1">
          <mxGeometry x="2436" y="4370" width="160" height="100" as="geometry" />
        </mxCell>
        <mxCell id="_DGLzaf6c6v-ZmG1vvUs-200" value="" style="endArrow=classic;html=1;rounded=0;exitX=1;exitY=0.5;exitDx=0;exitDy=0;edgeStyle=orthogonalEdgeStyle;" parent="1" source="_DGLzaf6c6v-ZmG1vvUs-184" edge="1">
          <mxGeometry width="50" height="50" relative="1" as="geometry">
            <mxPoint x="1615" y="4630" as="sourcePoint" />
            <mxPoint x="2185" y="4720" as="targetPoint" />
            <Array as="points">
              <mxPoint x="2095" y="4560" />
              <mxPoint x="2095" y="4720" />
            </Array>
          </mxGeometry>
        </mxCell>
        <mxCell id="_DGLzaf6c6v-ZmG1vvUs-201" value="Алгоритм" style="ellipse;whiteSpace=wrap;html=1;fillColor=#ffff88;strokeColor=#36393d;" parent="1" vertex="1">
          <mxGeometry x="1830" y="4225" width="180" height="100" as="geometry" />
        </mxCell>
        <mxCell id="_DGLzaf6c6v-ZmG1vvUs-202" value="" style="endArrow=none;html=1;rounded=0;entryX=0;entryY=0;entryDx=0;entryDy=0;exitX=0;exitY=1;exitDx=0;exitDy=0;" parent="1" source="_DGLzaf6c6v-ZmG1vvUs-201" target="_DGLzaf6c6v-ZmG1vvUs-201" edge="1">
          <mxGeometry width="50" height="50" relative="1" as="geometry">
            <mxPoint x="1800" y="4390" as="sourcePoint" />
            <mxPoint x="1850" y="4340" as="targetPoint" />
          </mxGeometry>
        </mxCell>
        <mxCell id="_DGLzaf6c6v-ZmG1vvUs-205" value="Выполняет" style="edgeLabel;html=1;align=center;verticalAlign=middle;resizable=0;points=[];" parent="1" vertex="1" connectable="0">
          <mxGeometry x="2066.303762414338" y="4264.8139052365295" as="geometry" />
        </mxCell>
        <mxCell id="_DGLzaf6c6v-ZmG1vvUs-207" value="" style="endArrow=classic;html=1;rounded=0;exitX=0.5;exitY=1;exitDx=0;exitDy=0;" parent="1" source="_DGLzaf6c6v-ZmG1vvUs-190" edge="1">
          <mxGeometry width="50" height="50" relative="1" as="geometry">
            <mxPoint x="2261.91" y="4606" as="sourcePoint" />
            <mxPoint x="2262" y="4690" as="targetPoint" />
          </mxGeometry>
        </mxCell>
        <mxCell id="_DGLzaf6c6v-ZmG1vvUs-208" value="Автоматическая проверка наличие количества курьеров на линии" style="rounded=1;whiteSpace=wrap;html=1;fillColor=#66FF40;strokeColor=#36393d;" parent="1" vertex="1">
          <mxGeometry x="2187" y="4690" width="153" height="90" as="geometry" />
        </mxCell>
        <mxCell id="_DGLzaf6c6v-ZmG1vvUs-209" value="Проверка завершена" style="shape=hexagon;perimeter=hexagonPerimeter2;whiteSpace=wrap;html=1;fixedSize=1;fillColor=#FF99FF;" parent="1" vertex="1">
          <mxGeometry x="2169.5" y="4850" width="190" height="80" as="geometry" />
        </mxCell>
        <mxCell id="_DGLzaf6c6v-ZmG1vvUs-210" value="Процесс завершения обработки заявки" style="rounded=1;whiteSpace=wrap;html=1;fillColor=#66FF40;strokeColor=#36393d;" parent="1" vertex="1">
          <mxGeometry x="2187.5" y="5000" width="155" height="90" as="geometry" />
        </mxCell>
        <mxCell id="_DGLzaf6c6v-ZmG1vvUs-211" value="Оформление завершено" style="shape=hexagon;perimeter=hexagonPerimeter2;whiteSpace=wrap;html=1;fixedSize=1;fillColor=#FF99FF;" parent="1" vertex="1">
          <mxGeometry x="1960" y="5510" width="190" height="80" as="geometry" />
        </mxCell>
        <mxCell id="_DGLzaf6c6v-ZmG1vvUs-212" value="Проведение профилактической проверки на наличие видимых повреждении товара" style="rounded=1;whiteSpace=wrap;html=1;fillColor=#66FF40;strokeColor=#36393d;" parent="1" vertex="1">
          <mxGeometry x="1992.5" y="5640" width="155" height="90" as="geometry" />
        </mxCell>
        <mxCell id="_DGLzaf6c6v-ZmG1vvUs-213" value="Завершение процесса приема заявки" style="shape=hexagon;perimeter=hexagonPerimeter2;whiteSpace=wrap;html=1;fixedSize=1;fillColor=#FF99FF;" parent="1" vertex="1">
          <mxGeometry x="1975" y="5780" width="190" height="80" as="geometry" />
        </mxCell>
        <mxCell id="_DGLzaf6c6v-ZmG1vvUs-214" value="" style="endArrow=classic;html=1;rounded=0;" parent="1" edge="1">
          <mxGeometry width="50" height="50" relative="1" as="geometry">
            <mxPoint x="2262.91" y="3940" as="sourcePoint" />
            <mxPoint x="2263" y="4000" as="targetPoint" />
          </mxGeometry>
        </mxCell>
        <mxCell id="_DGLzaf6c6v-ZmG1vvUs-215" value="" style="endArrow=classic;html=1;rounded=0;entryX=0.5;entryY=0;entryDx=0;entryDy=0;exitX=0.5;exitY=1;exitDx=0;exitDy=0;" parent="1" source="_DGLzaf6c6v-ZmG1vvUs-181" target="_DGLzaf6c6v-ZmG1vvUs-182" edge="1">
          <mxGeometry width="50" height="50" relative="1" as="geometry">
            <mxPoint x="2256" y="4140" as="sourcePoint" />
            <mxPoint x="2306" y="4100" as="targetPoint" />
          </mxGeometry>
        </mxCell>
        <mxCell id="_DGLzaf6c6v-ZmG1vvUs-216" value="" style="endArrow=classic;html=1;rounded=0;entryX=0.513;entryY=0;entryDx=0;entryDy=0;entryPerimeter=0;exitX=0.5;exitY=1;exitDx=0;exitDy=0;" parent="1" source="_DGLzaf6c6v-ZmG1vvUs-182" target="_DGLzaf6c6v-ZmG1vvUs-183" edge="1">
          <mxGeometry width="50" height="50" relative="1" as="geometry">
            <mxPoint x="2256" y="4270" as="sourcePoint" />
            <mxPoint x="2306" y="4220" as="targetPoint" />
          </mxGeometry>
        </mxCell>
        <mxCell id="_DGLzaf6c6v-ZmG1vvUs-217" value="" style="endArrow=classic;html=1;rounded=0;" parent="1" edge="1">
          <mxGeometry width="50" height="50" relative="1" as="geometry">
            <mxPoint x="2265.41" y="4380" as="sourcePoint" />
            <mxPoint x="2265.5" y="4425" as="targetPoint" />
          </mxGeometry>
        </mxCell>
        <mxCell id="_DGLzaf6c6v-ZmG1vvUs-220" value="" style="endArrow=classic;html=1;rounded=0;entryX=0.5;entryY=0;entryDx=0;entryDy=0;exitX=0.5;exitY=1;exitDx=0;exitDy=0;" parent="1" source="_DGLzaf6c6v-ZmG1vvUs-208" target="_DGLzaf6c6v-ZmG1vvUs-209" edge="1">
          <mxGeometry width="50" height="50" relative="1" as="geometry">
            <mxPoint x="2255" y="4670" as="sourcePoint" />
            <mxPoint x="2305" y="4620" as="targetPoint" />
          </mxGeometry>
        </mxCell>
        <mxCell id="_DGLzaf6c6v-ZmG1vvUs-221" value="" style="endArrow=classic;html=1;rounded=0;" parent="1" edge="1">
          <mxGeometry width="50" height="50" relative="1" as="geometry">
            <mxPoint x="2265" y="4930" as="sourcePoint" />
            <mxPoint x="2265" y="5000" as="targetPoint" />
          </mxGeometry>
        </mxCell>
        <mxCell id="_DGLzaf6c6v-ZmG1vvUs-222" value="XOR" style="ellipse;whiteSpace=wrap;html=1;aspect=fixed;fillColor=#ababab;" parent="1" vertex="1">
          <mxGeometry x="2245" y="5140" width="40" height="40" as="geometry" />
        </mxCell>
        <mxCell id="_DGLzaf6c6v-ZmG1vvUs-223" value="" style="endArrow=classic;html=1;rounded=0;exitX=0.5;exitY=1;exitDx=0;exitDy=0;entryX=0.5;entryY=0;entryDx=0;entryDy=0;" parent="1" source="_DGLzaf6c6v-ZmG1vvUs-210" target="_DGLzaf6c6v-ZmG1vvUs-222" edge="1">
          <mxGeometry width="50" height="50" relative="1" as="geometry">
            <mxPoint x="2255" y="5370" as="sourcePoint" />
            <mxPoint x="2305" y="5320" as="targetPoint" />
          </mxGeometry>
        </mxCell>
        <mxCell id="_DGLzaf6c6v-ZmG1vvUs-224" value="" style="endArrow=classic;html=1;rounded=0;exitX=0;exitY=0.5;exitDx=0;exitDy=0;edgeStyle=orthogonalEdgeStyle;" parent="1" source="_DGLzaf6c6v-ZmG1vvUs-222" edge="1">
          <mxGeometry width="50" height="50" relative="1" as="geometry">
            <mxPoint x="2162.5" y="5280" as="sourcePoint" />
            <mxPoint x="2055" y="5240" as="targetPoint" />
          </mxGeometry>
        </mxCell>
        <mxCell id="_DGLzaf6c6v-ZmG1vvUs-225" value="" style="endArrow=classic;html=1;rounded=0;entryX=0.5;entryY=0;entryDx=0;entryDy=0;exitX=1;exitY=0.5;exitDx=0;exitDy=0;edgeStyle=orthogonalEdgeStyle;" parent="1" source="_DGLzaf6c6v-ZmG1vvUs-222" target="_DGLzaf6c6v-ZmG1vvUs-178" edge="1">
          <mxGeometry width="50" height="50" relative="1" as="geometry">
            <mxPoint x="2255" y="5320" as="sourcePoint" />
            <mxPoint x="2305" y="5270" as="targetPoint" />
          </mxGeometry>
        </mxCell>
        <mxCell id="_DGLzaf6c6v-ZmG1vvUs-226" value="" style="endArrow=classic;html=1;rounded=0;edgeStyle=orthogonalEdgeStyle;exitX=0.5;exitY=1;exitDx=0;exitDy=0;" parent="1" source="_DGLzaf6c6v-ZmG1vvUs-178" edge="1">
          <mxGeometry width="50" height="50" relative="1" as="geometry">
            <mxPoint x="2435.41" y="5520" as="sourcePoint" />
            <mxPoint x="2341" y="4310" as="targetPoint" />
            <Array as="points">
              <mxPoint x="2435" y="5560" />
              <mxPoint x="2676" y="5560" />
              <mxPoint x="2676" y="4310" />
            </Array>
          </mxGeometry>
        </mxCell>
        <mxCell id="_DGLzaf6c6v-ZmG1vvUs-230" value="" style="endArrow=classic;html=1;rounded=0;entryX=1;entryY=0.5;entryDx=0;entryDy=0;exitX=-0.03;exitY=0.562;exitDx=0;exitDy=0;exitPerimeter=0;" parent="1" source="_DGLzaf6c6v-ZmG1vvUs-197" target="_DGLzaf6c6v-ZmG1vvUs-181" edge="1">
          <mxGeometry width="50" height="50" relative="1" as="geometry">
            <mxPoint x="2256" y="4170" as="sourcePoint" />
            <mxPoint x="2306" y="4120" as="targetPoint" />
          </mxGeometry>
        </mxCell>
        <mxCell id="_DGLzaf6c6v-ZmG1vvUs-231" value="" style="endArrow=classic;html=1;rounded=0;entryX=0;entryY=0.5;entryDx=0;entryDy=0;exitX=1;exitY=0.5;exitDx=0;exitDy=0;" parent="1" source="_DGLzaf6c6v-ZmG1vvUs-179" target="_DGLzaf6c6v-ZmG1vvUs-181" edge="1">
          <mxGeometry width="50" height="50" relative="1" as="geometry">
            <mxPoint x="2256" y="4170" as="sourcePoint" />
            <mxPoint x="2306" y="4120" as="targetPoint" />
          </mxGeometry>
        </mxCell>
        <mxCell id="_DGLzaf6c6v-ZmG1vvUs-232" value="Выполняет" style="edgeLabel;html=1;align=center;verticalAlign=middle;resizable=0;points=[];" parent="_DGLzaf6c6v-ZmG1vvUs-231" vertex="1" connectable="0">
          <mxGeometry x="-0.1811" relative="1" as="geometry">
            <mxPoint as="offset" />
          </mxGeometry>
        </mxCell>
        <mxCell id="_DGLzaf6c6v-ZmG1vvUs-233" value="" style="endArrow=classic;html=1;rounded=0;entryX=0.5;entryY=0;entryDx=0;entryDy=0;exitX=0.5;exitY=1;exitDx=0;exitDy=0;" parent="1" source="_DGLzaf6c6v-ZmG1vvUs-212" target="_DGLzaf6c6v-ZmG1vvUs-213" edge="1">
          <mxGeometry width="50" height="50" relative="1" as="geometry">
            <mxPoint x="2270" y="5640" as="sourcePoint" />
            <mxPoint x="2320" y="5590" as="targetPoint" />
          </mxGeometry>
        </mxCell>
        <mxCell id="_DGLzaf6c6v-ZmG1vvUs-234" value="" style="endArrow=classic;html=1;rounded=0;entryX=-0.023;entryY=0.562;entryDx=0;entryDy=0;entryPerimeter=0;exitX=0.997;exitY=0.612;exitDx=0;exitDy=0;exitPerimeter=0;edgeStyle=orthogonalEdgeStyle;" parent="1" source="_DGLzaf6c6v-ZmG1vvUs-183" target="_DGLzaf6c6v-ZmG1vvUs-198" edge="1">
          <mxGeometry width="50" height="50" relative="1" as="geometry">
            <mxPoint x="2356" y="4375" as="sourcePoint" />
            <mxPoint x="2406" y="4325" as="targetPoint" />
          </mxGeometry>
        </mxCell>
        <mxCell id="_DGLzaf6c6v-ZmG1vvUs-235" value="" style="endArrow=classic;html=1;rounded=0;" parent="1" edge="1">
          <mxGeometry width="50" height="50" relative="1" as="geometry">
            <mxPoint x="1880" y="5670" as="sourcePoint" />
            <mxPoint x="1990" y="5670" as="targetPoint" />
          </mxGeometry>
        </mxCell>
        <mxCell id="_DGLzaf6c6v-ZmG1vvUs-236" value="Документация" style="shape=document;whiteSpace=wrap;html=1;boundedLbl=1;strokeColor=#000000;fillColor=#88A0B8;" parent="1" vertex="1">
          <mxGeometry x="1760" y="5640" width="120" height="80" as="geometry" />
        </mxCell>
        <mxCell id="_DGLzaf6c6v-ZmG1vvUs-237" value="Автоматическое&lt;br&gt;оформление заявки" style="rounded=1;whiteSpace=wrap;html=1;fillColor=#66FF40;strokeColor=#36393d;" parent="1" vertex="1">
          <mxGeometry x="1977.5" y="5370" width="155" height="90" as="geometry" />
        </mxCell>
        <mxCell id="_DGLzaf6c6v-ZmG1vvUs-238" value="Заявка принята" style="shape=hexagon;perimeter=hexagonPerimeter2;whiteSpace=wrap;html=1;fixedSize=1;fillColor=#FF99FF;" parent="1" vertex="1">
          <mxGeometry x="1965" y="5250" width="190" height="80" as="geometry" />
        </mxCell>
        <mxCell id="_DGLzaf6c6v-ZmG1vvUs-239" value="" style="endArrow=classic;html=1;rounded=0;" parent="1" edge="1">
          <mxGeometry width="50" height="50" relative="1" as="geometry">
            <mxPoint x="2054.55" y="5330" as="sourcePoint" />
            <mxPoint x="2055" y="5370" as="targetPoint" />
          </mxGeometry>
        </mxCell>
        <mxCell id="_DGLzaf6c6v-ZmG1vvUs-240" value="" style="endArrow=classic;html=1;rounded=0;" parent="1" edge="1">
          <mxGeometry width="50" height="50" relative="1" as="geometry">
            <mxPoint x="2054.09" y="5460" as="sourcePoint" />
            <mxPoint x="2055" y="5510" as="targetPoint" />
          </mxGeometry>
        </mxCell>
        <mxCell id="_DGLzaf6c6v-ZmG1vvUs-241" value="" style="endArrow=classic;html=1;rounded=0;" parent="1" edge="1">
          <mxGeometry width="50" height="50" relative="1" as="geometry">
            <mxPoint x="2054.09" y="5590" as="sourcePoint" />
            <mxPoint x="2055" y="5640" as="targetPoint" />
          </mxGeometry>
        </mxCell>
        <mxCell id="_DGLzaf6c6v-ZmG1vvUs-242" value="Система управления заявками курьерской службы" style="ellipse;whiteSpace=wrap;html=1;fillColor=#ffff88;strokeColor=#36393d;" parent="1" vertex="1">
          <mxGeometry x="1839" y="5000" width="180" height="100" as="geometry" />
        </mxCell>
        <mxCell id="_DGLzaf6c6v-ZmG1vvUs-243" value="" style="endArrow=none;html=1;rounded=0;entryX=0;entryY=0;entryDx=0;entryDy=0;exitX=0;exitY=1;exitDx=0;exitDy=0;" parent="1" source="_DGLzaf6c6v-ZmG1vvUs-242" target="_DGLzaf6c6v-ZmG1vvUs-242" edge="1">
          <mxGeometry width="50" height="50" relative="1" as="geometry">
            <mxPoint x="1809" y="5165" as="sourcePoint" />
            <mxPoint x="1859" y="5115" as="targetPoint" />
          </mxGeometry>
        </mxCell>
        <mxCell id="_DGLzaf6c6v-ZmG1vvUs-244" value="выполняет" style="text;html=1;strokeColor=none;fillColor=none;align=center;verticalAlign=middle;whiteSpace=wrap;rounded=0;" parent="1" vertex="1">
          <mxGeometry x="2035" y="5020" width="60" height="30" as="geometry" />
        </mxCell>
        <mxCell id="_DGLzaf6c6v-ZmG1vvUs-245" value="" style="endArrow=classic;html=1;rounded=0;exitX=1;exitY=0.5;exitDx=0;exitDy=0;" parent="1" source="_DGLzaf6c6v-ZmG1vvUs-242" edge="1">
          <mxGeometry width="50" height="50" relative="1" as="geometry">
            <mxPoint x="2035" y="5170" as="sourcePoint" />
            <mxPoint x="2185" y="5050" as="targetPoint" />
          </mxGeometry>
        </mxCell>
        <mxCell id="_DGLzaf6c6v-ZmG1vvUs-248" value="" style="endArrow=classic;html=1;rounded=0;exitX=1;exitY=0.5;exitDx=0;exitDy=0;" parent="1" edge="1">
          <mxGeometry width="50" height="50" relative="1" as="geometry">
            <mxPoint x="1829" y="5415" as="sourcePoint" />
            <mxPoint x="1975" y="5410" as="targetPoint" />
          </mxGeometry>
        </mxCell>
        <mxCell id="_DGLzaf6c6v-ZmG1vvUs-249" value="Выполняет" style="edgeLabel;html=1;align=center;verticalAlign=middle;resizable=0;points=[];" parent="_DGLzaf6c6v-ZmG1vvUs-248" vertex="1" connectable="0">
          <mxGeometry x="-0.1904" y="3" relative="1" as="geometry">
            <mxPoint x="-3" y="-10" as="offset" />
          </mxGeometry>
        </mxCell>
        <mxCell id="_DGLzaf6c6v-ZmG1vvUs-250" value="Курьер службы" style="ellipse;whiteSpace=wrap;html=1;fillColor=#ffff88;strokeColor=#36393d;" parent="1" vertex="1">
          <mxGeometry x="2265" y="5635" width="180" height="100" as="geometry" />
        </mxCell>
        <mxCell id="_DGLzaf6c6v-ZmG1vvUs-251" value="" style="endArrow=none;html=1;rounded=0;entryX=0;entryY=0;entryDx=0;entryDy=0;exitX=0;exitY=1;exitDx=0;exitDy=0;" parent="1" source="_DGLzaf6c6v-ZmG1vvUs-250" target="_DGLzaf6c6v-ZmG1vvUs-250" edge="1">
          <mxGeometry width="50" height="50" relative="1" as="geometry">
            <mxPoint x="2570" y="5790" as="sourcePoint" />
            <mxPoint x="2620" y="5740" as="targetPoint" />
          </mxGeometry>
        </mxCell>
        <mxCell id="_DGLzaf6c6v-ZmG1vvUs-252" value="" style="endArrow=classic;html=1;rounded=0;" parent="1" edge="1">
          <mxGeometry width="50" height="50" relative="1" as="geometry">
            <mxPoint x="2265" y="5684" as="sourcePoint" />
            <mxPoint x="2143" y="5684.33" as="targetPoint" />
          </mxGeometry>
        </mxCell>
        <mxCell id="_DGLzaf6c6v-ZmG1vvUs-253" value="Выполняет" style="edgeLabel;html=1;align=center;verticalAlign=middle;resizable=0;points=[];" parent="_DGLzaf6c6v-ZmG1vvUs-252" vertex="1" connectable="0">
          <mxGeometry x="-0.2187" y="-3" relative="1" as="geometry">
            <mxPoint x="-2" y="-11" as="offset" />
          </mxGeometry>
        </mxCell>
        <mxCell id="_DGLzaf6c6v-ZmG1vvUs-255" value="БД" style="shape=datastore;whiteSpace=wrap;html=1;fillColor=#88A0B8;" parent="1" vertex="1">
          <mxGeometry x="793" y="4895" width="145" height="90" as="geometry" />
        </mxCell>
        <mxCell id="_DGLzaf6c6v-ZmG1vvUs-256" value="" style="endArrow=classic;html=1;rounded=0;" parent="1" edge="1">
          <mxGeometry width="50" height="50" relative="1" as="geometry">
            <mxPoint x="795.5" y="4930" as="sourcePoint" />
            <mxPoint x="715.5" y="4930" as="targetPoint" />
          </mxGeometry>
        </mxCell>
        <mxCell id="_DGLzaf6c6v-ZmG1vvUs-257" value="БД" style="shape=datastore;whiteSpace=wrap;html=1;fillColor=#88A0B8;" parent="1" vertex="1">
          <mxGeometry x="2210" y="5380" width="145" height="90" as="geometry" />
        </mxCell>
        <mxCell id="_DGLzaf6c6v-ZmG1vvUs-258" value="" style="endArrow=classic;html=1;rounded=0;" parent="1" edge="1">
          <mxGeometry width="50" height="50" relative="1" as="geometry">
            <mxPoint x="2212.5" y="5415" as="sourcePoint" />
            <mxPoint x="2132.5" y="5415" as="targetPoint" />
          </mxGeometry>
        </mxCell>
        <mxCell id="_DGLzaf6c6v-ZmG1vvUs-259" value="Менеджеры по работе с клиентами" style="ellipse;whiteSpace=wrap;html=1;fillColor=#ffff88;strokeColor=#36393d;" parent="1" vertex="1">
          <mxGeometry x="1794.07" y="4680" width="180" height="100" as="geometry" />
        </mxCell>
        <mxCell id="_DGLzaf6c6v-ZmG1vvUs-260" value="" style="endArrow=none;html=1;rounded=0;entryX=0;entryY=0;entryDx=0;entryDy=0;exitX=0;exitY=1;exitDx=0;exitDy=0;" parent="1" source="_DGLzaf6c6v-ZmG1vvUs-259" target="_DGLzaf6c6v-ZmG1vvUs-259" edge="1">
          <mxGeometry width="50" height="50" relative="1" as="geometry">
            <mxPoint x="2086.07" y="4835" as="sourcePoint" />
            <mxPoint x="2136.07" y="4785" as="targetPoint" />
          </mxGeometry>
        </mxCell>
        <mxCell id="_DGLzaf6c6v-ZmG1vvUs-261" value="Контралирует" style="edgeLabel;html=1;align=center;verticalAlign=middle;resizable=0;points=[];" parent="1" vertex="1" connectable="0">
          <mxGeometry x="2049.0027524491034" y="4740.002393587023" as="geometry">
            <mxPoint x="-8" y="-2" as="offset" />
          </mxGeometry>
        </mxCell>
        <mxCell id="_DGLzaf6c6v-ZmG1vvUs-262" value="" style="endArrow=classic;html=1;rounded=0;entryX=0.013;entryY=0.889;entryDx=0;entryDy=0;entryPerimeter=0;exitX=1;exitY=0.5;exitDx=0;exitDy=0;edgeStyle=orthogonalEdgeStyle;" parent="1" source="_DGLzaf6c6v-ZmG1vvUs-259" target="_DGLzaf6c6v-ZmG1vvUs-208" edge="1">
          <mxGeometry width="50" height="50" relative="1" as="geometry">
            <mxPoint x="1992.5" y="4780" as="sourcePoint" />
            <mxPoint x="2042.5" y="4730" as="targetPoint" />
          </mxGeometry>
        </mxCell>
        <mxCell id="_DGLzaf6c6v-ZmG1vvUs-267" value="БД" style="shape=datastore;whiteSpace=wrap;html=1;fillColor=#88A0B8;" parent="1" vertex="1">
          <mxGeometry x="2460" y="4190" width="145" height="90" as="geometry" />
        </mxCell>
        <mxCell id="_DGLzaf6c6v-ZmG1vvUs-268" value="" style="endArrow=classic;html=1;rounded=0;edgeStyle=orthogonalEdgeStyle;entryX=0;entryY=0.5;entryDx=0;entryDy=0;" parent="1" target="_DGLzaf6c6v-ZmG1vvUs-267" edge="1">
          <mxGeometry width="50" height="50" relative="1" as="geometry">
            <mxPoint x="2341" y="4300" as="sourcePoint" />
            <mxPoint x="2440" y="4240" as="targetPoint" />
            <Array as="points">
              <mxPoint x="2341" y="4301" />
              <mxPoint x="2410" y="4301" />
              <mxPoint x="2410" y="4235" />
            </Array>
          </mxGeometry>
        </mxCell>
        <mxCell id="_DGLzaf6c6v-ZmG1vvUs-269" value="БД" style="shape=datastore;whiteSpace=wrap;html=1;fillColor=#88A0B8;" parent="1" vertex="1">
          <mxGeometry x="2442.5" y="4700" width="145" height="90" as="geometry" />
        </mxCell>
        <mxCell id="_DGLzaf6c6v-ZmG1vvUs-270" value="" style="endArrow=classic;html=1;rounded=0;entryX=1;entryY=0.5;entryDx=0;entryDy=0;" parent="1" target="_DGLzaf6c6v-ZmG1vvUs-208" edge="1">
          <mxGeometry width="50" height="50" relative="1" as="geometry">
            <mxPoint x="2439" y="4735" as="sourcePoint" />
            <mxPoint x="2439" y="4770" as="targetPoint" />
          </mxGeometry>
        </mxCell>
        <mxCell id="_DGLzaf6c6v-ZmG1vvUs-271" value="&lt;font style=&quot;font-size: 48px;&quot;&gt;As IS&lt;/font&gt;" style="text;html=1;strokeColor=none;fillColor=none;align=center;verticalAlign=middle;whiteSpace=wrap;rounded=0;" parent="1" vertex="1">
          <mxGeometry x="784.28" y="3520" width="153.72" height="30" as="geometry" />
        </mxCell>
        <mxCell id="_DGLzaf6c6v-ZmG1vvUs-272" value="&lt;span style=&quot;font-size: 48px;&quot;&gt;To Be&lt;/span&gt;" style="text;html=1;strokeColor=none;fillColor=none;align=center;verticalAlign=middle;whiteSpace=wrap;rounded=0;" parent="1" vertex="1">
          <mxGeometry x="2186" y="3700" width="153.72" height="30" as="geometry" />
        </mxCell>
        <mxCell id="rYrMTj0-VR9Pnu8nQPqp-15" style="edgeStyle=orthogonalEdgeStyle;rounded=0;orthogonalLoop=1;jettySize=auto;html=1;entryX=-0.01;entryY=0.18;entryDx=0;entryDy=0;entryPerimeter=0;" parent="1" source="cH5RoPgpv2FKXtCWTPLv-5" target="cH5RoPgpv2FKXtCWTPLv-1" edge="1">
          <mxGeometry relative="1" as="geometry">
            <mxPoint x="70" y="1470" as="targetPoint" />
          </mxGeometry>
        </mxCell>
        <mxCell id="rYrMTj0-VR9Pnu8nQPqp-20" value="&lt;font style=&quot;font-size: 11px;&quot;&gt;Увеличение кол-во заявок&lt;/font&gt;" style="text;html=1;align=center;verticalAlign=middle;resizable=0;points=[];autosize=1;strokeColor=none;fillColor=none;" parent="1" vertex="1">
          <mxGeometry x="1030" y="3170" width="160" height="30" as="geometry" />
        </mxCell>
        <mxCell id="rYrMTj0-VR9Pnu8nQPqp-25" style="edgeStyle=orthogonalEdgeStyle;rounded=0;orthogonalLoop=1;jettySize=auto;html=1;entryX=0.5;entryY=0;entryDx=0;entryDy=0;" parent="1" source="rYrMTj0-VR9Pnu8nQPqp-24" target="6b2ZdlBM0GPliZROmy70-1" edge="1">
          <mxGeometry relative="1" as="geometry" />
        </mxCell>
        <mxCell id="rYrMTj0-VR9Pnu8nQPqp-24" value="&lt;span style=&quot;font-size: 13px;&quot;&gt;ИС КУРЬЕРСКОЙ СЛУЖБЫ ПО ДОСТАВКЕ ТОВАРОВ&amp;nbsp;&lt;/span&gt;" style="whiteSpace=wrap;html=1;" parent="1" vertex="1">
          <mxGeometry x="235" y="30" width="420" height="90" as="geometry" />
        </mxCell>
        <mxCell id="rYrMTj0-VR9Pnu8nQPqp-30" value="" style="endArrow=classic;html=1;rounded=0;" parent="1" edge="1">
          <mxGeometry width="50" height="50" relative="1" as="geometry">
            <mxPoint x="975" y="970" as="sourcePoint" />
            <mxPoint x="975" y="1050" as="targetPoint" />
          </mxGeometry>
        </mxCell>
        <mxCell id="rYrMTj0-VR9Pnu8nQPqp-31" value="Устав предприятия" style="text;html=1;align=center;verticalAlign=middle;resizable=0;points=[];autosize=1;strokeColor=none;fillColor=none;" parent="1" vertex="1">
          <mxGeometry x="920" y="940" width="130" height="30" as="geometry" />
        </mxCell>
        <mxCell id="rYrMTj0-VR9Pnu8nQPqp-33" value="Ген.директор" style="text;html=1;align=center;verticalAlign=middle;resizable=0;points=[];autosize=1;strokeColor=none;fillColor=none;" parent="1" vertex="1">
          <mxGeometry x="940" y="1328" width="100" height="30" as="geometry" />
        </mxCell>
        <mxCell id="rYrMTj0-VR9Pnu8nQPqp-34" style="edgeStyle=orthogonalEdgeStyle;rounded=0;orthogonalLoop=1;jettySize=auto;html=1;entryX=0.809;entryY=1;entryDx=0;entryDy=0;entryPerimeter=0;" parent="1" source="rYrMTj0-VR9Pnu8nQPqp-33" target="X_DyiIEWOo_TwhWUqL3B-62" edge="1">
          <mxGeometry relative="1" as="geometry" />
        </mxCell>
        <mxCell id="rYrMTj0-VR9Pnu8nQPqp-35" value="Законодательство РФ" style="text;html=1;align=center;verticalAlign=middle;resizable=0;points=[];autosize=1;strokeColor=none;fillColor=none;" parent="1" vertex="1">
          <mxGeometry x="675" y="918" width="150" height="30" as="geometry" />
        </mxCell>
        <mxCell id="rYrMTj0-VR9Pnu8nQPqp-36" style="edgeStyle=orthogonalEdgeStyle;rounded=0;orthogonalLoop=1;jettySize=auto;html=1;entryX=0.063;entryY=0.015;entryDx=0;entryDy=0;entryPerimeter=0;" parent="1" source="rYrMTj0-VR9Pnu8nQPqp-35" target="X_DyiIEWOo_TwhWUqL3B-62" edge="1">
          <mxGeometry relative="1" as="geometry" />
        </mxCell>
        <mxCell id="nrnErWFvbXQyUceWhHJY-1" style="edgeStyle=orthogonalEdgeStyle;rounded=0;orthogonalLoop=1;jettySize=auto;html=1;entryX=0.5;entryY=0;entryDx=0;entryDy=0;" edge="1" parent="1" source="rYrMTj0-VR9Pnu8nQPqp-40" target="nrnErWFvbXQyUceWhHJY-2">
          <mxGeometry relative="1" as="geometry">
            <mxPoint x="1280" y="530" as="targetPoint" />
          </mxGeometry>
        </mxCell>
        <mxCell id="rYrMTj0-VR9Pnu8nQPqp-40" value="руководитель отдела по работе с клиентом" style="whiteSpace=wrap;html=1;" parent="1" vertex="1">
          <mxGeometry x="880" y="360" width="120" height="60" as="geometry" />
        </mxCell>
        <mxCell id="nrnErWFvbXQyUceWhHJY-2" value="Курьеры службы" style="whiteSpace=wrap;html=1;" vertex="1" parent="1">
          <mxGeometry x="1210" y="540" width="120" height="60" as="geometry" />
        </mxCell>
        <mxCell id="nrnErWFvbXQyUceWhHJY-6" value="Система управления заявками курьерской службы" style="ellipse;whiteSpace=wrap;html=1;fillColor=#ffff88;strokeColor=#36393d;" vertex="1" parent="1">
          <mxGeometry x="1654" y="5370" width="180" height="100" as="geometry" />
        </mxCell>
        <mxCell id="nrnErWFvbXQyUceWhHJY-15" value="&lt;font style=&quot;font-size: 11px;&quot;&gt;Новые сотрудники&lt;/font&gt;" style="text;html=1;align=center;verticalAlign=middle;resizable=0;points=[];autosize=1;strokeColor=none;fillColor=none;" vertex="1" parent="1">
          <mxGeometry x="530.3" y="1180" width="120" height="30" as="geometry" />
        </mxCell>
        <mxCell id="nrnErWFvbXQyUceWhHJY-16" style="edgeStyle=orthogonalEdgeStyle;rounded=0;orthogonalLoop=1;jettySize=auto;html=1;entryX=0.006;entryY=0.893;entryDx=0;entryDy=0;entryPerimeter=0;" edge="1" parent="1" source="nrnErWFvbXQyUceWhHJY-15" target="X_DyiIEWOo_TwhWUqL3B-62">
          <mxGeometry relative="1" as="geometry">
            <Array as="points">
              <mxPoint x="732" y="1190" />
            </Array>
          </mxGeometry>
        </mxCell>
        <mxCell id="nrnErWFvbXQyUceWhHJY-20" value="Курьеры службы" style="text;html=1;align=center;verticalAlign=middle;resizable=0;points=[];autosize=1;strokeColor=none;fillColor=none;" vertex="1" parent="1">
          <mxGeometry x="720" y="1268" width="120" height="30" as="geometry" />
        </mxCell>
        <mxCell id="nrnErWFvbXQyUceWhHJY-22" style="edgeStyle=orthogonalEdgeStyle;rounded=0;orthogonalLoop=1;jettySize=auto;html=1;entryX=0.159;entryY=0.987;entryDx=0;entryDy=0;entryPerimeter=0;" edge="1" parent="1" source="nrnErWFvbXQyUceWhHJY-20" target="X_DyiIEWOo_TwhWUqL3B-62">
          <mxGeometry relative="1" as="geometry" />
        </mxCell>
        <mxCell id="nrnErWFvbXQyUceWhHJY-26" value="" style="rounded=1;whiteSpace=wrap;html=1;fillColor=#66FF40;strokeColor=#36393d;" vertex="1" parent="1">
          <mxGeometry x="-652.5" y="4380" width="155" height="90" as="geometry" />
        </mxCell>
        <mxCell id="xIVhRgSLY87ZJ8C9RX9J-4" style="edgeStyle=orthogonalEdgeStyle;rounded=0;orthogonalLoop=1;jettySize=auto;html=1;endArrow=none;endFill=0;startArrow=classic;startFill=1;exitX=1;exitY=0;exitDx=0;exitDy=0;" edge="1" parent="1" source="xIVhRgSLY87ZJ8C9RX9J-8" target="_DGLzaf6c6v-ZmG1vvUs-75">
          <mxGeometry relative="1" as="geometry">
            <mxPoint x="1149.999913494623" y="4060.0588235294126" as="sourcePoint" />
            <Array as="points">
              <mxPoint x="1350" y="4061" />
              <mxPoint x="1350" y="4810" />
            </Array>
          </mxGeometry>
        </mxCell>
        <mxCell id="xIVhRgSLY87ZJ8C9RX9J-9" value="" style="endArrow=classic;html=1;rounded=0;entryX=0.5;entryY=0;entryDx=0;entryDy=0;exitX=0.5;exitY=1;exitDx=0;exitDy=0;" edge="1" parent="1" source="_DGLzaf6c6v-ZmG1vvUs-79" target="xIVhRgSLY87ZJ8C9RX9J-8">
          <mxGeometry width="50" height="50" relative="1" as="geometry">
            <mxPoint x="850" y="4050" as="sourcePoint" />
            <mxPoint x="850" y="4120" as="targetPoint" />
          </mxGeometry>
        </mxCell>
        <mxCell id="xIVhRgSLY87ZJ8C9RX9J-8" value="XOR" style="ellipse;whiteSpace=wrap;html=1;aspect=fixed;fillColor=#ababab;" vertex="1" parent="1">
          <mxGeometry x="830" y="4055" width="40" height="40" as="geometry" />
        </mxCell>
        <mxCell id="xIVhRgSLY87ZJ8C9RX9J-15" style="edgeStyle=orthogonalEdgeStyle;rounded=0;orthogonalLoop=1;jettySize=auto;html=1;entryX=0.25;entryY=0;entryDx=0;entryDy=0;" edge="1" parent="1" source="xIVhRgSLY87ZJ8C9RX9J-14" target="cH5RoPgpv2FKXtCWTPLv-1">
          <mxGeometry relative="1" as="geometry" />
        </mxCell>
        <mxCell id="xIVhRgSLY87ZJ8C9RX9J-14" value="Законодательство РФ" style="text;html=1;align=center;verticalAlign=middle;resizable=0;points=[];autosize=1;strokeColor=none;fillColor=none;" vertex="1" parent="1">
          <mxGeometry x="55" y="1348" width="150" height="30" as="geometry" />
        </mxCell>
        <mxCell id="xIVhRgSLY87ZJ8C9RX9J-17" value="Устав предприятия" style="text;html=1;align=center;verticalAlign=middle;resizable=0;points=[];autosize=1;strokeColor=none;fillColor=none;" vertex="1" parent="1">
          <mxGeometry x="205" y="1348" width="130" height="30" as="geometry" />
        </mxCell>
        <mxCell id="xIVhRgSLY87ZJ8C9RX9J-18" style="edgeStyle=orthogonalEdgeStyle;rounded=0;orthogonalLoop=1;jettySize=auto;html=1;entryX=0.947;entryY=-0.012;entryDx=0;entryDy=0;entryPerimeter=0;" edge="1" parent="1" source="xIVhRgSLY87ZJ8C9RX9J-17" target="cH5RoPgpv2FKXtCWTPLv-1">
          <mxGeometry relative="1" as="geometry" />
        </mxCell>
      </root>
    </mxGraphModel>
  </diagram>
  <diagram id="TuFlElfrIF7aPlqEsLkZ" name="Страница — 2">
    <mxGraphModel dx="2074" dy="1150" grid="1" gridSize="10" guides="1" tooltips="1" connect="1" arrows="1" fold="1" page="1" pageScale="1" pageWidth="827" pageHeight="1169" math="0" shadow="0">
      <root>
        <mxCell id="0" />
        <mxCell id="1" parent="0" />
        <mxCell id="FuOeV7-bUyDw8ikhgTsM-1" value="СОрганизация деятельности по создание , внедрению и сопоовождению ИС для клиентов" style="rounded=0;whiteSpace=wrap;html=1;" parent="1" vertex="1">
          <mxGeometry x="70" y="210" width="120" height="60" as="geometry" />
        </mxCell>
        <mxCell id="FuOeV7-bUyDw8ikhgTsM-2" value="Организация&amp;nbsp; адинистративная деятельность&amp;nbsp;" style="rounded=0;whiteSpace=wrap;html=1;" parent="1" vertex="1">
          <mxGeometry x="300" y="320" width="120" height="60" as="geometry" />
        </mxCell>
        <mxCell id="FuOeV7-bUyDw8ikhgTsM-3" value="Организация кадрового учета" style="rounded=0;whiteSpace=wrap;html=1;" parent="1" vertex="1">
          <mxGeometry x="130" y="550" width="120" height="60" as="geometry" />
        </mxCell>
        <mxCell id="FuOeV7-bUyDw8ikhgTsM-4" value="Организация бух ггалтерского учета" style="rounded=0;whiteSpace=wrap;html=1;" parent="1" vertex="1">
          <mxGeometry x="320" y="680" width="120" height="60" as="geometry" />
        </mxCell>
        <mxCell id="FuOeV7-bUyDw8ikhgTsM-5" value="Маркетивная&amp;nbsp;" style="rounded=0;whiteSpace=wrap;html=1;" parent="1" vertex="1">
          <mxGeometry x="600" y="810" width="120" height="60" as="geometry" />
        </mxCell>
        <mxCell id="FuOeV7-bUyDw8ikhgTsM-6" value="Прием и оформление сотрудни" style="rounded=0;whiteSpace=wrap;html=1;" parent="1" vertex="1">
          <mxGeometry x="100" y="930" width="120" height="60" as="geometry" />
        </mxCell>
        <mxCell id="FuOeV7-bUyDw8ikhgTsM-7" value="" style="rounded=0;whiteSpace=wrap;html=1;" parent="1" vertex="1">
          <mxGeometry x="320" y="1030" width="120" height="60" as="geometry" />
        </mxCell>
        <mxCell id="FuOeV7-bUyDw8ikhgTsM-8" value="" style="rounded=0;whiteSpace=wrap;html=1;" parent="1" vertex="1">
          <mxGeometry x="620" y="1109" width="120" height="60" as="geometry" />
        </mxCell>
      </root>
    </mxGraphModel>
  </diagram>
</mxfile>
